<svg xmlns="http://www.w3.org/2000/svg" viewBox="0 0 48 48"><style>.st0{display:none}.st1{display:inline}.st2{display:none}.st3{display:none;fill-rule:evenodd;clip-rule:evenodd;fill:none;stroke:#999;stroke-width:.1;stroke-miterlimit:10}.st4{fill:#5a5959}.st5{fill:none;stroke:#008bd0;stroke-width:2;stroke-linecap:round;stroke-linejoin:round;stroke-miterlimit:10}.st6{fill:#008bd0}.st7{stroke-width:2;stroke-miterlimit:10}.st7,.st8{fill:none;stroke:#008bd0}.st8{stroke-linecap:round;stroke-linejoin:round}.st9{stroke-dasharray:2.0606,3.0909}.st9,.st10{fill:none;stroke:#008bd0;stroke-linecap:round;stroke-linejoin:round}.st10{stroke-dasharray:1.8571,2.7857}.st11{stroke-dasharray:2,3}.st11,.st12{fill:none;stroke:#008bd0;stroke-linecap:round;stroke-linejoin:round}.st12{stroke-dasharray:2.0879,2.0879}.st13{stroke-dasharray:2.1846,2.1846}.st13,.st14{fill:none;stroke:#008bd0;stroke-linecap:round;stroke-linejoin:round}.st14{stroke-dasharray:2.4103,2.4103}.st15{fill-rule:evenodd;clip-rule:evenodd;stroke-width:2}.st15,.st16{fill:none;stroke:#008bd0;stroke-linecap:round;stroke-linejoin:round;stroke-miterlimit:10}.st17{stroke-dasharray:1.9363,2.9045}.st17,.st18{fill:none;stroke:#008bd0;stroke-linecap:round;stroke-linejoin:round}.st18{stroke-dasharray:2.0107,3.0161}.st19{stroke-dasharray:2.1648,3.2473}.st19,.st20{fill:none;stroke:#008bd0;stroke-linecap:round;stroke-linejoin:round}.st20{stroke-width:2}.st21{stroke-dasharray:2.1959,4.3919}.st21,.st22{fill:none;stroke:#008bd0;stroke-width:2;stroke-linecap:round;stroke-linejoin:round}.st22{stroke-dasharray:2.0661,4.1322}.st23{stroke-dasharray:2.9348,3.913}.st23,.st24{fill:none;stroke:#008bd0;stroke-width:2;stroke-linecap:round;stroke-linejoin:round}.st24{stroke-dasharray:2.8015,3.7354}.st25{stroke-dasharray:3,4}.st25,.st26{fill:none;stroke:#008bd0;stroke-width:2;stroke-linecap:round;stroke-linejoin:round}.st26{stroke-dasharray:2.85,3.8}</style><g class="st0 st1" id="grid"><path class="st2" d="M25-8.9C41.5-8.9 54.9 4.5 54.9 21S41.5 50.9 25 50.9-4.9 37.5-4.9 21 8.5-8.9 25-8.9m0-.1C8.4-9-5 4.4-5 21S8.4 51 25 51s30-13.4 30-30S41.6-9 25-9z"/><path class="st2" d="M25 11.1c5.5 0 9.9 4.4 9.9 9.9s-4.4 9.9-9.9 9.9-9.9-4.4-9.9-9.9 4.4-9.9 9.9-9.9m0-.1c-5.5 0-10 4.5-10 10s4.5 10 10 10 10-4.5 10-10-4.5-10-10-10z"/><path class="st2" d="M25 1.1C36 1.1 44.9 10 44.9 21S36 40.9 25 40.9C14 40.9 5.1 32 5.1 21S14 1.1 25 1.1m0-.1C14 1 5 10 5 21s9 20 20 20 20-9 20-20S36 1 25 1z"/><path class="st2" d="M55-9v60H-5V-9h60m0 0H-5v60h60V-9z"/><path class="st3" d="M0-4l50 50M50-4L0 46"/></g><g id="icons"><path class="st5" d="M1 1h31.6l-4.5 9.9h-3.6L6.4 47"/><circle class="st5" cx="42.5" cy="15.4" r="4.5"/><path class="st5" d="M42.5 19.9L35 35l-8-6-10 8"/><path class="st5" d="M35 35l-4-10-8.4-1.5M39.8 25.4L34.4 19l-2.7-9M39.8 11.8l-4.5-6.3"/></g></svg>