<svg xmlns="http://www.w3.org/2000/svg" viewBox="0 7 50 24"><title>Better - The Feel Good Place</title><g fill="#fff"><path class="logo-svg" d="M15.9 28.6h-3c-.3 0-.6 0-.8-.1-.1-.1-.1-.6-.1-.9v-2c0-.4-.1-.6.2-.8.1-.1.4-.1.6-.1h1.7c.4 0 .4-.1.4-1.3s0-1.3-.4-1.3h-1.8c-.2 0-.4 0-.6-.1-.2-.1-.1-.4-.1-.7v-2c0-.4 0-.3.1-.5.1-.1.4-.1.6-.1h3.1c.4 0 .4-.1.4-1.3 0-1 0-1.2-.3-1.2h-6c-.3 0-.4 0-.6.2-.1.2-.2.2-.2.4V30c0 .4-.1.8.1 1 .2.1.6.1 1.1.1h5.5c.3 0 .3-.1.3-1.3.2-1.1.2-1.2-.2-1.2M40.5 28.6h-3c-.3 0-.6 0-.8-.1-.1-.1-.1-.6-.1-.9v-2c0-.4-.1-.6.2-.8.1-.1.4-.1.6-.1h1.7c.4 0 .4-.1.4-1.3s0-1.3-.4-1.3h-1.8c-.2 0-.4 0-.6-.1s-.1-.4-.1-.7v-2c0-.4 0-.3.1-.5.1-.1.4-.1.6-.1h3.1c.4 0 .4-.1.4-1.3 0-1 0-1.2-.3-1.2h-5.9c-.3 0-.4 0-.6.2-.1.2-.2.2-.2.4V30c0 .4-.1.8.1 1 .2.1.6.1 1.1.1h5.5c.3 0 .3-.1.3-1.3 0-1.1 0-1.2-.3-1.2M7.7 24.2c-.5-.7-1.4-.8-1.4-.9 0-.1.7-.2 1.2-.8.4-.5.5-1 .5-1.9V20c0-1.1-.3-2.1-1-2.9-.8-.8-2-1.1-3.1-1.1H.8c-.3 0-.5 0-.6.1-.2.3-.2.5-.2.5v13.3c0 .9 0 1 .1 1.1.1.1.4.1.8.1H4c1 0 2.2-.3 3.1-1.2.9-.9 1.1-1.8 1.1-2.8v-1.4c-.1-.6-.2-1.1-.5-1.5m-4.9-4.8c0-.1 0-.3.1-.4.1-.1.3-.1.6-.1H4c.5 0 .6.1.8.3.4.4.4.9.4 1.4v.1c0 .3 0 .6-.4 1-.3.3-.6.4-.9.4h-.4c-.2 0-.4 0-.5-.1-.1-.1-.1-.3-.1-.5l-.1-2.1zm2.5 7.5c0 .5 0 .8-.4 1.2-.3.3-.7.4-.9.4H3c-.2-.1-.2-.4-.2-.6v-2.6c0-.5.1-.5.9-.5h.5c.8 0 1.1.7 1.1 1.7v.4zM49.5 24.4c-.5-.6-1.3-.7-1.3-.8 0-.1.8-.2 1.3-.9.4-.5.4-1 .4-1.7v-.9c0-1.1-.3-2.2-1.1-2.9-.8-.8-1.9-1.1-3.1-1.1h-3.1c-.4 0-.5-.1-.7.1-.1.1-.1.4-.1.3v13.6c0 .9.2.9 1.3.9 1.3 0 1.5 0 1.5-.5v-5.3c0-.4.1-.4 1-.4h.5c.6 0 1 .7 1 1.7v4.1c0 .5.1.4 1.4.4 1.3 0 1.4 0 1.4-.4v-4.7c.1-.6 0-1-.4-1.5M47.1 21c0 .3 0 .6-.4 1-.3.3-.7.4-.9.4h-.5c-.2 0-.4 0-.5-.1-.1-.1-.1-.3-.1-.5v-2.5c0-.1 0-.2.1-.4.1-.1.3-.1.5-.1h.5c.6 0 .8.1.9.3.4.4.4.9.4 1.4v.5zM25.2 7h-.4c-2 0-3.5 1.1-3.5 3.4v1.3c0 2.1 1.4 3.4 3.5 3.4h.4c2 0 3.5-1.3 3.5-3.4v-1.3c0-2.3-1.4-3.4-3.5-3.4m1 4.1c0 .8-.2 1.7-1 1.7h-.4c-.8 0-1-.9-1-1.7 0-1 .1-1.7 1-1.7h.4c.9 0 1 .7 1 1.7zM32.7 17.4c0-1 0-1.2-.4-1.2H17.6c-.3 0-.4.2-.4 1.2 0 1.1 0 1.3.3 1.3h2.3c.3 0 .6 0 .8.1.1.1.1.2.2.4V31c0 .3.2.3 1.3.3h.2c1.1 0 1.3 0 1.3-.3V19.2v-.1c0-.1.1-.3.2-.4h2.3c.1.1.1.2.2.4V30.9c0 .3.2.3 1.3.3h.2c1.1 0 1.3 0 1.3-.3V19.2v-.1c0-.1.1-.3.2-.4.2-.1.5-.1.8-.1h2.3c.3.1.3 0 .3-1.2z"/></g></svg>