<?xml version="1.0" encoding="utf-8"?>
<!-- Generator: Adobe Illustrator 19.2.0, SVG Export Plug-In . SVG Version: 6.00 Build 0)  -->
<svg version="1.1" id="Layer_1" xmlns="http://www.w3.org/2000/svg" xmlns:xlink="http://www.w3.org/1999/xlink" x="0px" y="0px"
	 viewBox="0 0 20.3 25.2" style="enable-background:new 0 0 20.3 25.2;" xml:space="preserve">
<style type="text/css">
	.st0{display:none;}
	.st1{display:inline;}
	.st2{fill:#999999;}
	.st3{fill:none;stroke:#999999;stroke-width:0.1;stroke-miterlimit:10;}
	.st4{fill:#FFFFFF;stroke:#3AAA35;stroke-width:2;stroke-linecap:round;stroke-linejoin:round;stroke-miterlimit:10;}
	.st5{fill:none;stroke:#3AAA35;stroke-width:2;stroke-linecap:round;stroke-linejoin:round;stroke-miterlimit:10;}
</style>
<g id="grid" class="st0">
	<g class="st1">
		<g>
			<g>
				<path class="st2" d="M9.4-2.9c8.2,0,14.9,6.7,14.9,14.9S17.6,26.9,9.4,26.9S-5.5,20.2-5.5,12S1.1-2.9,9.4-2.9 M9.4-3
					c-8.3,0-15,6.7-15,15s6.7,15,15,15s15-6.7,15-15S17.6-3,9.4-3L9.4-3z"/>
			</g>
			<g>
				<path class="st2" d="M9.4,7.1c2.7,0,4.9,2.2,4.9,4.9s-2.2,4.9-4.9,4.9S4.5,14.7,4.5,12S6.7,7.1,9.4,7.1 M9.4,7c-2.8,0-5,2.2-5,5
					s2.2,5,5,5s5-2.2,5-5S12.1,7,9.4,7L9.4,7z"/>
			</g>
			<g>
				<path class="st2" d="M9.4,2.1c5.5,0,9.9,4.4,9.9,9.9s-4.4,9.9-9.9,9.9s-9.9-4.4-9.9-9.9S3.9,2.1,9.4,2.1 M9.4,2
					c-5.5,0-10,4.5-10,10s4.5,10,10,10s10-4.5,10-10S14.9,2,9.4,2L9.4,2z"/>
			</g>
			<g>
				<path class="st2" d="M24.4-3v30h-30V-3H24.4 M24.4-3h-30v30h30V-3L24.4-3z"/>
			</g>
			<line class="st3" x1="-3.1" y1="-0.5" x2="21.9" y2="24.5"/>
			<line class="st3" x1="21.9" y1="-0.5" x2="-3.1" y2="24.5"/>
		</g>
	</g>
</g>
<g id="copy" class="st0">
</g>
<g id="research" class="st0">
</g>
<g>
	<path class="st4" d="M17.5,15.6L17.5,15.6c1.1-1.5,1.8-3.4,1.8-5.5C19.3,5,15.2,1,10.2,1C5.1,1,1,5.1,1,10.1c0,2,0.7,3.9,1.8,5.5
		l0,0l0,0c7.3,8.6,7.3,8.6,7.3,8.6S10.1,24.2,17.5,15.6L17.5,15.6z"/>
	<circle class="st5" cx="10.1" cy="10.1" r="3.8"/>
</g>
</svg>
