<svg id="Layer_1" xmlns="http://www.w3.org/2000/svg" viewBox="-260 379.9 74.2 82"><style>.st0{display:none}.st1{display:inline}.st2{display:none}.st3{display:none;fill:none;stroke:#999;stroke-width:.1;stroke-miterlimit:10}.st4{display:inline;fill:none}.st5{enable-background:new}.st6{fill:#5a5959}.st7{stroke-width:2;stroke-miterlimit:10}.st7,.st8,.st9{fill:none;stroke:#3aaa35;stroke-linecap:round;stroke-linejoin:round}.st9{stroke-dasharray:1.9363,2.9045}.st10{stroke-dasharray:2.0107,3.0161}.st10,.st11{fill:none;stroke:#3aaa35;stroke-linecap:round;stroke-linejoin:round}.st11{stroke-dasharray:2.1648,3.2473}</style><g class="st0 st1" id="grid"><path class="st2" d="M-223.7 377c24.8 0 44.9 20.1 44.9 44.9 0 24.8-20.1 44.9-44.9 44.9s-44.9-20.1-44.9-44.9c0-24.8 20.2-44.9 44.9-44.9m0-.1c-24.9 0-45 20.1-45 45s20.1 45 45 45 45-20.1 45-45-20.1-45-45-45z"/><path class="st2" d="M-223.7 407c8.2 0 14.9 6.7 14.9 14.9s-6.7 14.9-14.9 14.9-14.9-6.7-14.9-14.9 6.7-14.9 14.9-14.9m0-.1c-8.3 0-15 6.7-15 15s6.7 15 15 15 15-6.7 15-15-6.7-15-15-15z"/><path class="st2" d="M-223.7 392c16.5 0 29.9 13.4 29.9 29.9s-13.4 29.9-29.9 29.9-29.9-13.4-29.9-29.9 13.4-29.9 29.9-29.9m0-.1c-16.6 0-30 13.4-30 30s13.4 30 30 30 30-13.4 30-30-13.4-30-30-30z"/><path class="st2" d="M-178.7 376.9v90h-90v-90h90m0 0h-90v90h90v-90z"/><path class="st3" d="M-261.2 384.4l75 75M-186.2 384.4l-75 75"/></g><g id="copy" class="st0"><path class="st4" d="M-336.9 422.9h99.3v18h-99.3z"/><text transform="translate(-336.932 428.778)" fill="#5a5959" font-family="Lato-Regular" font-size="8">Badminton court</text></g><g id="icons"><path class="st7" d="M-213.2 400.3v-9.7c0-6-3.1-9.7-9.7-9.7s-9.7 3.7-9.7 9.7v9.7h19.4zM-187.3 451.2c-1.7-3.4-24.6-48.3-24.6-48.3h-22s-22.9 44.9-24.5 48.3 0 9.7 6.5 9.7c6.7 0 9.7-6.5 9.7-6.5s3.4 6.5 9.7 6.5 10.7-6 10.7-6 2.4 6 8.7 6c6.3 0 9.3-6 9.3-6s3.8 6 10.1 6c6 0 8-6.3 6.4-9.7z"/><path class="st8" d="M-251.9 441.5h1"/><path class="st9" d="M-248 441.5h51.8"/><path class="st8" d="M-194.8 441.5h1"/><path class="st7" d="M-242.3 454.4l12.4-51.5"/><path class="st8" d="M-245.5 428.6h1"/><path class="st10" d="M-241.5 428.6h38.7"/><path class="st8" d="M-201.3 428.6h1"/><g><path class="st8" d="M-239 415.7h1"/><path class="st11" d="M-234.8 415.7h25.5"/><path class="st8" d="M-207.7 415.7h1"/></g><path class="st7" d="M-222.7 454.9v-51M-203.9 454.9l-12-51"/></g></svg>