<svg id="Layer_1" xmlns="http://www.w3.org/2000/svg" viewBox="-273 396.4 47.1 49.5"><style>.st0{display:none}.st1{display:inline}.st2{display:none}.st3{display:none;stroke:#999;stroke-width:.1}.st3,.st4{fill:none;stroke-miterlimit:10}.st4{stroke:#3aaa35;stroke-width:2;stroke-linecap:round;stroke-linejoin:round}</style><g class="st0 st1" id="grid"><path class="st2" d="M-250 391.2c16.5 0 29.9 13.4 29.9 29.9S-233.5 451-250 451s-29.9-13.4-29.9-29.9 13.4-29.9 29.9-29.9m0-.1c-16.6 0-30 13.5-30 30 0 16.6 13.4 30 30 30s30-13.4 30-30c0-16.5-13.4-30-30-30z"/><path class="st2" d="M-250 411.2c5.5 0 9.9 4.4 9.9 9.9s-4.4 9.9-9.9 9.9-9.9-4.4-9.9-9.9 4.4-9.9 9.9-9.9m0-.1c-5.5 0-10 4.5-10 10s4.5 10 10 10 10-4.5 10-10-4.5-10-10-10z"/><path class="st2" d="M-250 401.2c11 0 19.9 8.9 19.9 19.9S-239 441-250 441s-19.9-8.9-19.9-19.9 8.9-19.9 19.9-19.9m0-.1c-11 0-20 9-20 20s9 20 20 20 20-9 20-20-9-20-20-20z"/><path class="st2" d="M-220 391.1v60h-60v-60h60m0 0h-60v60h60v-60z"/><path class="st3" d="M-275 396.1l50 50M-225 396.1l-50 50"/></g><g id="icons"><path class="st4" d="M-246.1 412.6c0-3.1 1.3-5.9 1.3-5.9.8-1 1.3-2.2 1.3-3.6 0-3.2-2.5-5.7-5.6-5.7-3.1 0-5.6 2.5-5.6 5.6 0 1.4.5 2.6 1.3 3.6 0 0 1.3 3.5 1.3 5.9 0 2.5-4.6 6.8-4.6 16.5 0 3.4 2.6 15.8 2.6 15.8h9.9s2.6-12.4 2.6-15.8c.1-9.8-4.5-13.8-4.5-16.4zM-252 412.6h5.9M-253.4 417.2h8.8"/><g><path class="st4" d="M-230.3 414c0-2.3 1-4.3 1-4.3.6-.7 1-1.6 1-2.7 0-2.3-1.8-4.1-4.1-4.1s-4.1 1.8-4.1 4.1c0 1 .4 1.9 1 2.7 0 0 1 2.5 1 4.3 0 1.8-3.4 4.9-3.4 12.1 0 2.5 1.9 11.6 1.9 11.6h7.2s1.9-9 1.9-11.6c0-7.3-3.4-10.2-3.4-12.1zM-234.5 414h4.2M-235.6 417.3h6.3"/></g><g><path class="st4" d="M-264.3 414c0-2.3 1-4.3 1-4.3.6-.7 1-1.6 1-2.7 0-2.3-1.8-4.1-4.1-4.1s-4.1 1.8-4.1 4.1c0 1 .4 1.9 1 2.7 0 0 1 2.5 1 4.3 0 1.8-3.4 4.9-3.4 12.1 0 2.5 1.9 11.6 1.9 11.6h7.2s1.9-9 1.9-11.6c0-7.3-3.4-10.2-3.4-12.1zM-268.2 414h3.9M-269.6 417.3h6.2"/></g></g></svg>