<svg id="Layer_1" xmlns="http://www.w3.org/2000/svg" viewBox="-274 397.1 46.1 47.8"><style>.st0{display:none}.st1{display:inline}.st2{display:none}.st3{display:none;stroke:#999;stroke-width:.1}.st3,.st4{fill:none;stroke-miterlimit:10}.st4{stroke:#3aaa35;stroke-width:2;stroke-linecap:round;stroke-linejoin:round}</style><g class="st0 st1" id="grid"><path class="st2" d="M-254.9 392.2c16.5 0 29.9 13.4 29.9 29.9s-13.4 29.9-29.9 29.9-29.9-13.4-29.9-29.9 13.4-29.9 29.9-29.9m0-.1c-16.6 0-30 13.4-30 30s13.4 30 30 30 30-13.4 30-30-13.4-30-30-30z"/><path class="st2" d="M-254.9 412.2c5.5 0 9.9 4.4 9.9 9.9s-4.4 9.9-9.9 9.9-9.9-4.4-9.9-9.9 4.4-9.9 9.9-9.9m0-.1c-5.5 0-10 4.5-10 10s4.5 10 10 10 10-4.5 10-10-4.5-10-10-10z"/><path class="st2" d="M-254.9 402.2c11 0 19.9 8.9 19.9 19.9s-8.9 19.9-19.9 19.9-19.9-8.9-19.9-19.9 8.9-19.9 19.9-19.9m0-.1c-11 0-20 9-20 20s9 20 20 20 20-9 20-20-9-20-20-20z"/><path class="st2" d="M-224.9 392.1v60h-60v-60h60m0 0h-60v60h60v-60z"/><path class="st3" d="M-279.9 397.1l50 50M-229.9 397.1l-50 50"/></g><g id="icons"><path class="st4" d="M-253.6 415.9h-19.3s-.8 11.3 2 18c2.8 6.7 6.4 10 6.4 10h19.3s3.6-3.3 6.4-10 2-18 2-18h-16.8zM-236.7 419.9h5.8c1.1 0 2 .9 2 2v4c0 2.6-.7 3.2-2 4l-7.6 4M-259 398.1s2.2 1.6 2.2 4.4c0 2.8-3.3 3-3.3 5.5s1.1 4.4 1.1 4.4M-252 398.1s2.2 1.6 2.2 4.4c0 2.8-3.3 3-3.3 5.5s1.1 4.4 1.1 4.4"/></g></svg>