<svg xmlns="http://www.w3.org/2000/svg" viewBox="0 0 42.8 44"><style>.st0{display:none}.st1{display:inline}.st2,.st3{display:none}.st3{fill-rule:evenodd;clip-rule:evenodd;fill:none;stroke:#999;stroke-width:.1;stroke-miterlimit:10}.st4{fill:#5a5959}.st5{fill:none;stroke-width:2;stroke-linecap:round;stroke-linejoin:round;stroke-miterlimit:10}.st5,.st6{stroke:#e30613}.st6{display:inline}.st6,.st7{fill:none;stroke-width:2;stroke-linecap:round;stroke-linejoin:round;stroke-miterlimit:10}.st7{stroke:#3aaa35}.st8{fill:#3aaa35}.st9{fill:#7aaf3b;stroke:#3aaa35;stroke-linecap:round;stroke-linejoin:round}.st9,.st10{stroke-width:2;stroke-miterlimit:10}.st10,.st11{fill:none;stroke:#3aaa35}.st11,.st12{stroke-linecap:round;stroke-linejoin:round}.st12{stroke-dasharray:2.0606,3.0909}.st12,.st13{fill:none;stroke:#3aaa35}.st13{stroke-dasharray:1.8571,2.7857}.st13,.st14{stroke-linecap:round;stroke-linejoin:round}.st14{stroke-dasharray:2,3}.st14,.st15{fill:none;stroke:#3aaa35}.st15{stroke-dasharray:2.0879,2.0879}.st15,.st16{stroke-linecap:round;stroke-linejoin:round}.st16{stroke-dasharray:2.1846,2.1846}.st16,.st17{fill:none;stroke:#3aaa35}.st17{stroke-dasharray:2.4103,2.4103}.st17,.st18{stroke-linecap:round;stroke-linejoin:round}.st18{fill-rule:evenodd;clip-rule:evenodd;stroke-miterlimit:10}.st18,.st19{fill:none;stroke:#3aaa35;stroke-width:2}.st19{stroke-dasharray:2.0143,3.0214}.st19,.st20{stroke-miterlimit:10}.st20{stroke-dasharray:2.0133,3.0199}.st20,.st21{fill:none;stroke:#3aaa35;stroke-width:2}.st21{stroke-dasharray:1.8982,2.8472}.st21,.st22{stroke-miterlimit:10}.st22,.st23{fill:none;stroke:#3aaa35;stroke-linecap:round;stroke-linejoin:round}.st23{stroke-dasharray:1.9363,2.9045}.st24{stroke-dasharray:2.0107,3.0161}.st24,.st25{fill:none;stroke:#3aaa35;stroke-linecap:round;stroke-linejoin:round}.st25{stroke-dasharray:2.1648,3.2473}</style><g class="st0 st1" id="grid"><path class="st2" d="M21-6.9C37.5-6.9 50.9 6.5 50.9 23S37.5 52.9 21 52.9-8.9 39.5-8.9 23 4.5-6.9 21-6.9m0-.1C4.4-7-9 6.4-9 23S4.4 53 21 53s30-13.4 30-30S37.6-7 21-7z"/><path class="st2" d="M21 13.1c5.5 0 9.9 4.4 9.9 9.9s-4.4 9.9-9.9 9.9-9.9-4.4-9.9-9.9 4.4-9.9 9.9-9.9m0-.1c-5.5 0-10 4.5-10 10s4.5 10 10 10 10-4.5 10-10-4.5-10-10-10z"/><path class="st2" d="M21 3.1C32 3.1 40.9 12 40.9 23S32 42.9 21 42.9C10 42.9 1.1 34 1.1 23S10 3.1 21 3.1m0-.1C10 3 1 12 1 23s9 20 20 20 20-9 20-20S32 3 21 3z"/><path class="st2" d="M51-7v60H-9V-7h60m0 0H-9v60h60V-7z"/><path class="st3" d="M-4-2l50 50m0-50L-4 48"/></g><g id="icons"><path class="st7" d="M1 15h40"/><path class="st8" d="M11 34h3v-8.6c0-.3.5-.7.5-1.1l-1.9 1.8-.2.2h-.2c-.1 0-.2 0-.3-.1-.1-.1-.2-.1-.2-.2l-.8-1.2 4.5-3.9H17v13h2v2h-8V34zm17.9-13c.7 0 1.3.1 1.9.3.6.2 1 .5 1.5.9.4.4.7.8.9 1.3.2.5.3 1.1.3 1.7 0 .5-.1 1-.2 1.5-.2.5-.4.9-.6 1.3l-.9 1.2c-.4.4-.7.8-1.1 1.2l-3.3 3.4c.3-.1.6 0 1 0 .3-.1.6.1.9.1h3.8c.3 0 .1-.1.3 0 .2.2-.2.2-.2.4V36H23v-.9c0-.2.4-.3.4-.5.1-.2.3-.4.5-.5l4.6-4.5c.4-.4.8-.7 1-1.1.3-.3.6-.7.8-1 .2-.3.4-.7.5-1 .1-.4.2-.7.2-1.1 0-.4 0-.7-.2-.9-.1-.3-.2-.5-.4-.7-.2-.2-.4-.3-.7-.4-.3-.1-.6-.1-.9-.1-.6 0-1.1.2-1.5.5-.4.3-.7.7-.8 1.2-.1.3-.2.4-.3.6-.1.1-.3.2-.6.2h-.3l-1.3-.2c.1-.7.3-1.3.6-1.9.3-.5.7-1 1.1-1.3.4-.4.9-.6 1.5-.8.5-.5 1.1-.6 1.7-.6z"/><path class="st7" d="M36 5h6v38H1V5h6m7 0h16"/><path class="st7" d="M8 1h6v8H8zm22 0h6v8h-6z"/></g></svg>