<svg id="Layer_1" xmlns="http://www.w3.org/2000/svg" viewBox="-276 396.9 42.2 48"><style>.st0{display:none}.st1{display:inline}.st2{display:none}.st3{display:none;stroke:#999;stroke-width:.1}.st3,.st4{fill:none;stroke-miterlimit:10}.st4{stroke:#3aaa35;stroke-width:2;stroke-linecap:round;stroke-linejoin:round}</style><g class="st0 st1" id="grid"><path class="st2" d="M-255.6 390c16.5 0 29.9 13.4 29.9 29.9s-13.4 29.9-29.9 29.9-29.9-13.4-29.9-29.9 13.4-29.9 29.9-29.9m0-.1c-16.6 0-30 13.4-30 30s13.4 30 30 30 30-13.4 30-30-13.5-30-30-30z"/><path class="st2" d="M-255.6 410c5.5 0 9.9 4.4 9.9 9.9s-4.4 9.9-9.9 9.9-9.9-4.4-9.9-9.9 4.4-9.9 9.9-9.9m0-.1c-5.5 0-10 4.5-10 10s4.5 10 10 10 10-4.5 10-10-4.5-10-10-10z"/><path class="st2" d="M-255.6 400c11 0 19.9 8.9 19.9 19.9s-8.9 19.9-19.9 19.9-19.9-8.9-19.9-19.9 8.9-19.9 19.9-19.9m0-.1c-11 0-20 9-20 20s9 20 20 20 20-9 20-20-9-20-20-20z"/><path class="st2" d="M-225.6 389.9v60h-60v-60h60m0 0h-60v60h60v-60z"/><path class="st3" d="M-280.6 394.9l50 50M-230.6 394.9l-50 50"/></g><g id="icons"><path class="st4" d="M-234.8 417.9c-.2-11-9.1-20-20.1-20s-20 9-20.1 20h40.2z"/><path class="st4" d="M-242.8 417.9c-.1-11-5.4-19.8-12-19.8s-12 8.8-12 19.8h24zM-255.6 397.9v20M-237.6 417.9l-8 18v-18M-273.6 417.9l8 18v-18"/><circle class="st4" cx="-254.8" cy="429.3" r="3.7"/><path class="st4" d="M-248.7 438c0-1.6-.6-2.1-1.9-2.1h-8.4c-1.7 0-2.7.3-2.7 2v6h13V438z"/></g></svg>