<svg xmlns="http://www.w3.org/2000/svg" viewBox="0 0 54 50"><style>.st0{display:none}.st1{display:inline}.st2{display:none}.st3{display:none;fill-rule:evenodd;clip-rule:evenodd;fill:none;stroke:#999;stroke-width:.1;stroke-miterlimit:10}.st4{fill:#5a5959}.st5{fill:none;stroke:#3aaa35;stroke-width:2;stroke-linecap:round;stroke-linejoin:round;stroke-miterlimit:10}.st6{fill:#3aaa35}.st7{stroke-width:2;stroke-miterlimit:10}.st7,.st8{fill:none;stroke:#3aaa35}.st8{stroke-linecap:round;stroke-linejoin:round}.st9{stroke-dasharray:2.0606,3.0909}.st9,.st10{fill:none;stroke:#3aaa35;stroke-linecap:round;stroke-linejoin:round}.st10{stroke-dasharray:1.8571,2.7857}.st11{stroke-dasharray:2,3}.st11,.st12{fill:none;stroke:#3aaa35;stroke-linecap:round;stroke-linejoin:round}.st12{stroke-dasharray:2.0879,2.0879}.st13{stroke-dasharray:2.1846,2.1846}.st13,.st14{fill:none;stroke:#3aaa35;stroke-linecap:round;stroke-linejoin:round}.st14{stroke-dasharray:2.4103,2.4103}.st15{fill-rule:evenodd;clip-rule:evenodd;stroke-width:2}.st15,.st16{fill:none;stroke:#3aaa35;stroke-linecap:round;stroke-linejoin:round;stroke-miterlimit:10}.st17{stroke-dasharray:1.9363,2.9045}.st17,.st18{fill:none;stroke:#3aaa35;stroke-linecap:round;stroke-linejoin:round}.st18{stroke-dasharray:2.0107,3.0161}.st19{stroke-dasharray:2.1648,3.2473}.st19,.st20{fill:none;stroke:#3aaa35;stroke-linecap:round;stroke-linejoin:round}.st20{stroke-width:2}.st21{stroke-dasharray:2.1959,4.3919}.st21,.st22{fill:none;stroke:#3aaa35;stroke-width:2;stroke-linecap:round;stroke-linejoin:round}.st22{stroke-dasharray:2.0661,4.1322}.st23{stroke-dasharray:2.9348,3.913}.st23,.st24{fill:none;stroke:#3aaa35;stroke-width:2;stroke-linecap:round;stroke-linejoin:round}.st24{stroke-dasharray:2.8015,3.7354}.st25{stroke-dasharray:3,4}.st25,.st26{fill:none;stroke:#3aaa35;stroke-width:2;stroke-linecap:round;stroke-linejoin:round}.st26{stroke-dasharray:2.85,3.8}</style><g class="st0 st1" id="grid"><path class="st2" d="M27-4.9C43.5-4.9 56.9 8.5 56.9 25S43.5 54.9 27 54.9-2.9 41.5-2.9 25 10.5-4.9 27-4.9m0-.1C10.4-5-3 8.4-3 25s13.4 30 30 30 30-13.4 30-30S43.6-5 27-5z"/><path class="st2" d="M27 15.1c5.5 0 9.9 4.4 9.9 9.9s-4.4 9.9-9.9 9.9-9.9-4.4-9.9-9.9 4.4-9.9 9.9-9.9m0-.1c-5.5 0-10 4.5-10 10s4.5 10 10 10 10-4.5 10-10-4.5-10-10-10z"/><path class="st2" d="M27 5.1C38 5.1 46.9 14 46.9 25S38 44.9 27 44.9C16 44.9 7.1 36 7.1 25S16 5.1 27 5.1m0-.1C16 5 7 14 7 25s9 20 20 20 20-9 20-20S38 5 27 5z"/><path class="st2" d="M57-5v60H-3V-5h60m0 0H-3v60h60V-5z"/><path class="st3" d="M2 0l50 50M52 0L2 50"/></g><g id="icons"><path class="st5" d="M8.2 1h37.3v27H8.2zM53 45H1l7.2-13.6h37.4zM1 45h52v4H1zM17.2 21L30.7 7.6"/><path class="st20" d="M10 36.2h1"/><path class="st21" d="M15.3 36.2h24.2"/><path class="st20" d="M41.7 36.2h1"/><g><path class="st20" d="M7.5 40.1h1"/><path class="st22" d="M12.7 40.1h28.9"/><path class="st20" d="M43.6 40.1h1"/></g><path class="st5" d="M25.5 18.3l5.5-5.5"/></g></svg>