<svg id="Layer_1" xmlns="http://www.w3.org/2000/svg" viewBox="-259 387.9 75.1 66"><style>.st0{display:none}.st1{display:inline}.st2{display:none}.st3{display:none;stroke:#999;stroke-width:.1}.st3,.st4{fill:none;stroke-miterlimit:10}.st4{stroke:#3aaa35;stroke-width:2;stroke-linecap:round;stroke-linejoin:round}</style><g class="st0 st1" id="grid"><path class="st2" d="M-222.2 371c24.8 0 44.9 20.1 44.9 44.9 0 24.8-20.2 44.9-44.9 44.9s-44.9-20.1-44.9-44.9c0-24.8 20.1-44.9 44.9-44.9m0-.1c-24.9 0-45 20.1-45 45s20.1 45 45 45 45-20.1 45-45-20.2-45-45-45z"/><path class="st2" d="M-222.2 401c8.2 0 14.9 6.7 14.9 14.9s-6.7 14.9-14.9 14.9-14.9-6.7-14.9-14.9 6.7-14.9 14.9-14.9m0-.1c-8.3 0-15 6.7-15 15s6.7 15 15 15 15-6.7 15-15-6.7-15-15-15z"/><path class="st2" d="M-222.2 386c16.5 0 29.9 13.4 29.9 29.9s-13.4 29.9-29.9 29.9-29.9-13.4-29.9-29.9 13.4-29.9 29.9-29.9m0-.1c-16.6 0-30 13.4-30 30s13.4 30 30 30 30-13.4 30-30-13.4-30-30-30z"/><path class="st2" d="M-177.2 370.9v90h-90v-90h90m0 0h-90v90h90v-90z"/><path class="st3" d="M-259.7 378.4l75 75M-184.7 378.4l-75 75"/></g><g id="icons"><path class="st4" d="M-258 388.9h73.1v44.2H-258z"/><circle class="st4" cx="-236.7" cy="410.2" r="12.2"/><path class="st4" d="M-194 422.4v-21.3M-203.1 422.4v-15.2M-212.3 422.4v-9.1M-221.4 433.1v19.8M-233.6 452.9l12.2-9.1 12.2 9.1M-245.8 404.1l18.3 12.2M-236.7 398v12.2l-9.1 6.1"/></g></svg>