<svg xmlns="http://www.w3.org/2000/svg" viewBox="0 0 54 54"><style>.st0{display:none}.st1{display:inline}.st2{display:none}.st3{display:none;fill-rule:evenodd;clip-rule:evenodd;fill:none;stroke:#999;stroke-width:.1;stroke-miterlimit:10}.st4{fill:#5a5959}.st5{fill:none;stroke:#3aaa35;stroke-width:2;stroke-linecap:round;stroke-linejoin:round;stroke-miterlimit:10}.st6{fill:#3aaa35}.st7{stroke-width:2;stroke-miterlimit:10}.st7,.st8{fill:none;stroke:#3aaa35}.st8{stroke-linecap:round;stroke-linejoin:round}.st9{stroke-dasharray:2.0606,3.0909}.st9,.st10{fill:none;stroke:#3aaa35;stroke-linecap:round;stroke-linejoin:round}.st10{stroke-dasharray:1.8571,2.7857}.st11{stroke-dasharray:2,3}.st11,.st12{fill:none;stroke:#3aaa35;stroke-linecap:round;stroke-linejoin:round}.st12{stroke-dasharray:2.0879,2.0879}.st13{stroke-dasharray:2.1846,2.1846}.st13,.st14{fill:none;stroke:#3aaa35;stroke-linecap:round;stroke-linejoin:round}.st14{stroke-dasharray:2.4103,2.4103}.st15{fill-rule:evenodd;clip-rule:evenodd;stroke-width:2}.st15,.st16{fill:none;stroke:#3aaa35;stroke-linecap:round;stroke-linejoin:round;stroke-miterlimit:10}.st17{stroke-dasharray:1.9363,2.9045}.st17,.st18{fill:none;stroke:#3aaa35;stroke-linecap:round;stroke-linejoin:round}.st18{stroke-dasharray:2.0107,3.0161}.st19{stroke-dasharray:2.1648,3.2473}.st19,.st20{fill:none;stroke:#3aaa35;stroke-linecap:round;stroke-linejoin:round}.st20{stroke-width:2}.st21{stroke-dasharray:2.1959,4.3919}.st21,.st22{fill:none;stroke:#3aaa35;stroke-width:2;stroke-linecap:round;stroke-linejoin:round}.st22{stroke-dasharray:2.0661,4.1322}.st23{stroke-dasharray:2.9348,3.913}.st23,.st24{fill:none;stroke:#3aaa35;stroke-width:2;stroke-linecap:round;stroke-linejoin:round}.st24{stroke-dasharray:2.8015,3.7354}.st25{stroke-dasharray:3,4}.st25,.st26{fill:none;stroke:#3aaa35;stroke-width:2;stroke-linecap:round;stroke-linejoin:round}.st26{stroke-dasharray:2.85,3.8}</style><g class="st0 st1" id="grid"><path class="st2" d="M27-2.9c16.5 0 29.9 13.4 29.9 29.9S43.5 56.9 27 56.9-2.9 43.5-2.9 27 10.5-2.9 27-2.9m0-.1C10.4-3-3 10.4-3 27s13.4 30 30 30 30-13.4 30-30S43.6-3 27-3z"/><path class="st2" d="M27 17.1c5.5 0 9.9 4.4 9.9 9.9s-4.4 9.9-9.9 9.9-9.9-4.4-9.9-9.9 4.5-9.9 9.9-9.9m0-.1c-5.5 0-10 4.5-10 10s4.5 10 10 10 10-4.5 10-10-4.5-10-10-10z"/><path class="st2" d="M27 7.1C38 7.1 46.9 16 46.9 27S38 46.9 27 46.9C16 46.9 7.1 38 7.1 27S16 7.1 27 7.1m0-.1C16 7 7 16 7 27s9 20 20 20 20-9 20-20S38.1 7 27 7z"/><path class="st2" d="M57-3v60H-3V-3h60m0 0H-3v60h60V-3z"/><path class="st3" d="M2 2l50 50M52 2L2 52"/></g><g id="icons"><path class="st5" d="M6.2 49.6l-1.8-1.8C-.2 43.2-.2 35.6 4.4 31L31 4.5c4.6-4.6 12.2-4.6 16.8 0l1.8 1.8c4.6 4.6 4.6 12.2 0 16.8L23 49.6c-4.6 4.6-12.1 4.6-16.8 0z"/><path class="st5" d="M30.8 14.5c-1-1-1-2.7 0-3.7l2.3-2.3c1-1 2.7-1 3.7 0s1 2.7 0 3.7l-2.3 2.3c-.9 1-2.6 1-3.7 0zM39.5 23.2c-1-1-1-2.7 0-3.7l2.3-2.3c1-1 2.7-1 3.7 0s1 2.7 0 3.7l-2.3 2.3c-1 1-2.6 1-3.7 0zM35.7 13.4l4.9 4.9"/><g><path class="st5" d="M7.8 37.5c-1-1-1-2.7 0-3.7l2.3-2.3c1-1 2.7-1 3.7 0s1 2.7 0 3.7l-2.3 2.3c-1 1-2.7 1-3.7 0zM16.5 46.2c-1-1-1-2.7 0-3.7l2.3-2.3c1-1 2.7-1 3.7 0s1 2.7 0 3.7l-2.3 2.3c-1 1-2.7 1-3.7 0zM12.6 36.4l5 5"/></g></g></svg>