<svg xmlns="http://www.w3.org/2000/svg" viewBox="0 0 54 38"><style>.st0{display:none}.st1{display:inline}.st2{display:none}.st3{display:none;fill-rule:evenodd;clip-rule:evenodd;fill:none;stroke:#999;stroke-width:.1;stroke-miterlimit:10}.st4{fill:#5a5959}.st5{fill:none;stroke:#3aaa35;stroke-width:2;stroke-linecap:round;stroke-linejoin:round;stroke-miterlimit:10}.st6{fill:#3aaa35}.st7{stroke-width:2;stroke-miterlimit:10}.st7,.st8{fill:none;stroke:#3aaa35}.st8{stroke-linecap:round;stroke-linejoin:round}.st9{stroke-dasharray:2.0606,3.0909}.st9,.st10{fill:none;stroke:#3aaa35;stroke-linecap:round;stroke-linejoin:round}.st10{stroke-dasharray:1.8571,2.7857}.st11{stroke-dasharray:2,3}.st11,.st12{fill:none;stroke:#3aaa35;stroke-linecap:round;stroke-linejoin:round}.st12{stroke-dasharray:2.0879,2.0879}.st13{stroke-dasharray:2.1846,2.1846}.st13,.st14{fill:none;stroke:#3aaa35;stroke-linecap:round;stroke-linejoin:round}.st14{stroke-dasharray:2.4103,2.4103}.st15{fill-rule:evenodd;clip-rule:evenodd;stroke-width:2}.st15,.st16{fill:none;stroke:#3aaa35;stroke-linecap:round;stroke-linejoin:round;stroke-miterlimit:10}.st17{stroke-dasharray:1.9363,2.9045}.st17,.st18{fill:none;stroke:#3aaa35;stroke-linecap:round;stroke-linejoin:round}.st18{stroke-dasharray:2.0107,3.0161}.st19{stroke-dasharray:2.1648,3.2473}.st19,.st20{fill:none;stroke:#3aaa35;stroke-linecap:round;stroke-linejoin:round}.st20{stroke-width:2}.st21{stroke-dasharray:2.1959,4.3919}.st21,.st22{fill:none;stroke:#3aaa35;stroke-width:2;stroke-linecap:round;stroke-linejoin:round}.st22{stroke-dasharray:2.0661,4.1322}.st23{stroke-dasharray:2.9348,3.913}.st23,.st24{fill:none;stroke:#3aaa35;stroke-width:2;stroke-linecap:round;stroke-linejoin:round}.st24{stroke-dasharray:2.8015,3.7354}.st25{stroke-dasharray:3,4}.st25,.st26{fill:none;stroke:#3aaa35;stroke-width:2;stroke-linecap:round;stroke-linejoin:round}.st26{stroke-dasharray:2.85,3.8}</style><g class="st0 st1" id="grid"><path class="st2" d="M27-10.8c16.5 0 29.9 13.4 29.9 29.9S43.5 49 27 49-2.9 35.6-2.9 19.1 10.5-10.8 27-10.8m0-.1c-16.6 0-30 13.4-30 30s13.4 30 30 30 30-13.4 30-30-13.4-30-30-30z"/><path class="st2" d="M27 9.2c5.5 0 9.9 4.4 9.9 9.9S32.5 29 27 29s-9.9-4.4-9.9-9.9 4.4-9.9 9.9-9.9m0-.1c-5.5 0-10 4.5-10 10s4.5 10 10 10 10-4.5 10-10-4.5-10-10-10z"/><path class="st2" d="M27-.8c11 0 19.9 8.9 19.9 19.9S38 39 27 39C16 39 7.1 30 7.1 19.1S16-.8 27-.8m0-.1c-11 0-20 9-20 20s9 20 20 20 20-9 20-20-9-20-20-20z"/><path class="st2" d="M57-10.9v60H-3v-60h60m0 0H-3v60h60v-60z"/><path class="st3" d="M2-5.9l50 50M52-5.9l-50 50"/></g><g id="icons"><path class="st5" d="M38.4 1C33.3.9 27.5 3 27.5 3s-6.2-1.9-11.3-2C11.2.9 5 3 5 3v28s6.1-2 11.4-2 11.3 2 11.3 2 5.3-2 10.7-2c5.3 0 10.7 2 10.7 2V3c-.1 0-5.6-1.9-10.7-2z"/><path class="st5" d="M5 5H1v30h23.1c0 2 2.2 2 3.7 2 1.6 0 3.7 0 3.7-2H53V5h-4M27 3v28"/></g></svg>