<svg xmlns="http://www.w3.org/2000/svg" viewBox="0 0 54.7 37.8"><style>.st0{display:none}.st1{display:inline}.st2,.st3{display:none}.st3{fill-rule:evenodd;clip-rule:evenodd;fill:none;stroke:#999;stroke-width:.1;stroke-miterlimit:10}.st4{fill:#5a5959}.st5{fill:none;stroke:#3aaa35;stroke-width:2;stroke-linecap:round;stroke-linejoin:round;stroke-miterlimit:10}.st6{fill:#3aaa35}.st7{stroke-width:2;stroke-miterlimit:10}.st7,.st8{fill:none;stroke:#3aaa35}.st8{stroke-linecap:round;stroke-linejoin:round}.st9{stroke-dasharray:2.0606,3.0909}.st9,.st10{fill:none;stroke:#3aaa35;stroke-linecap:round;stroke-linejoin:round}.st10{stroke-dasharray:1.8571,2.7857}.st11{stroke-dasharray:2,3}.st11,.st12{fill:none;stroke:#3aaa35;stroke-linecap:round;stroke-linejoin:round}.st12{stroke-dasharray:2.0879,2.0879}.st13{stroke-dasharray:2.1846,2.1846}.st13,.st14{fill:none;stroke:#3aaa35;stroke-linecap:round;stroke-linejoin:round}.st14{stroke-dasharray:2.4103,2.4103}.st15{fill-rule:evenodd;clip-rule:evenodd;stroke-width:2}.st15,.st16{fill:none;stroke:#3aaa35;stroke-linecap:round;stroke-linejoin:round;stroke-miterlimit:10}.st17{stroke-dasharray:1.9363,2.9045}.st17,.st18{fill:none;stroke:#3aaa35;stroke-linecap:round;stroke-linejoin:round}.st18{stroke-dasharray:2.0107,3.0161}.st19{stroke-dasharray:2.1648,3.2473}.st19,.st20{fill:none;stroke:#3aaa35;stroke-linecap:round;stroke-linejoin:round}.st20{stroke-width:2}.st21{stroke-dasharray:2.1959,4.3919}.st21,.st22{fill:none;stroke:#3aaa35;stroke-width:2;stroke-linecap:round;stroke-linejoin:round}.st22{stroke-dasharray:2.0661,4.1322}.st23{stroke-dasharray:2.9348,3.913}.st23,.st24{fill:none;stroke:#3aaa35;stroke-width:2;stroke-linecap:round;stroke-linejoin:round}.st24{stroke-dasharray:2.8015,3.7354}.st25{stroke-dasharray:3,4}.st25,.st26{fill:none;stroke:#3aaa35;stroke-width:2;stroke-linecap:round;stroke-linejoin:round}.st26{stroke-dasharray:2.85,3.8}</style><g class="st0 st1" id="grid"><path class="st2" d="M28-13.4c16.5 0 29.9 13.4 29.9 29.9S44.5 46.4 28 46.4-1.9 33-1.9 16.5 11.5-13.4 28-13.4m0-.1c-16.6 0-30 13.4-30 30s13.4 30 30 30 30-13.4 30-30-13.4-30-30-30z"/><path class="st2" d="M28 6.6c5.5 0 9.9 4.4 9.9 9.9s-4.4 9.9-9.9 9.9-9.9-4.4-9.9-9.9 4.4-9.9 9.9-9.9m0-.1c-5.5 0-10 4.5-10 10s4.5 10 10 10 10-4.5 10-10-4.5-10-10-10z"/><path class="st2" d="M28-3.4c11 0 19.9 8.9 19.9 19.9S39 36.4 28 36.4c-11 0-19.9-8.9-19.9-19.9S17-3.4 28-3.4m0-.1c-11 0-20 9-20 20s9 20 20 20 20-9 20-20-9-20-20-20z"/><path class="st2" d="M58-13.5v60H-2v-60h60m0 0H-2v60h60v-60z"/><path class="st3" d="M3-8.5l50 50m0-50l-50 50"/></g><g id="icons"><path class="st5" d="M23 7.3s6.4-6.8 8-4c1.6 2.8 6.7 14.5 10 18s4 4 4 4 6.4 1.1 8 4c1.2 2.3.8 4.4-2 6-3.6 2.1-12 2.4-20-2s-15.2-7.7-18-8c-2.8-.3-12-3.5-12-8 0-4.6 2.9-5.5 4-8s3.5-9.9 6-8 5.6 5.8 8 6c2.4.2 4 0 4 0z"/><path class="st5" d="M1.9 13.7s2.9 2.8 5.1 3.6c2.2.8 6.8 1.9 9.9 4s16.8 10.3 24.1 12c7.2 1.7 11.1 1.2 11.1 1.2M33.3 21.3l4.4-3.2m-6.9-1.9l4.3-2.5m-6.2-3.1l3.7-1.9"/></g></svg>