<svg xmlns="http://www.w3.org/2000/svg" viewBox="0 0 54 38"><style>.st0{display:none}.st1{display:inline}.st2,.st3{display:none}.st3{fill-rule:evenodd;clip-rule:evenodd;fill:none;stroke:#999;stroke-width:.1;stroke-miterlimit:10}.st4{fill:#5a5959}.st5{fill:none;stroke:#008bd0;stroke-width:2;stroke-linecap:round;stroke-linejoin:round;stroke-miterlimit:10}.st6{fill:#008bd0}.st7{stroke-width:2;stroke-miterlimit:10}.st7,.st8{fill:none;stroke:#008bd0}.st8{stroke-linecap:round;stroke-linejoin:round}.st9{stroke-dasharray:2.0606,3.0909}.st9,.st10{fill:none;stroke:#008bd0;stroke-linecap:round;stroke-linejoin:round}.st10{stroke-dasharray:1.8571,2.7857}.st11{stroke-dasharray:2,3}.st11,.st12{fill:none;stroke:#008bd0;stroke-linecap:round;stroke-linejoin:round}.st12{stroke-dasharray:2.0879,2.0879}.st13{stroke-dasharray:2.1846,2.1846}.st13,.st14{fill:none;stroke:#008bd0;stroke-linecap:round;stroke-linejoin:round}.st14{stroke-dasharray:2.4103,2.4103}.st15{fill-rule:evenodd;clip-rule:evenodd;stroke-width:2}.st15,.st16{fill:none;stroke:#008bd0;stroke-linecap:round;stroke-linejoin:round;stroke-miterlimit:10}.st17{stroke-dasharray:1.9363,2.9045}.st17,.st18{fill:none;stroke:#008bd0;stroke-linecap:round;stroke-linejoin:round}.st18{stroke-dasharray:2.0107,3.0161}.st19{stroke-dasharray:2.1648,3.2473}.st19,.st20{fill:none;stroke:#008bd0;stroke-linecap:round;stroke-linejoin:round}.st20{stroke-width:2}.st21{stroke-dasharray:2.1959,4.3919}.st21,.st22{fill:none;stroke:#008bd0;stroke-width:2;stroke-linecap:round;stroke-linejoin:round}.st22{stroke-dasharray:2.0661,4.1322}.st23{stroke-dasharray:2.9348,3.913}.st23,.st24{fill:none;stroke:#008bd0;stroke-width:2;stroke-linecap:round;stroke-linejoin:round}.st24{stroke-dasharray:2.8015,3.7354}.st25{stroke-dasharray:3,4}.st25,.st26{fill:none;stroke:#008bd0;stroke-width:2;stroke-linecap:round;stroke-linejoin:round}.st26{stroke-dasharray:2.85,3.8}</style><g class="st0 st1" id="grid"><path class="st2" d="M27-10.9c16.5 0 29.9 13.4 29.9 29.9S43.5 48.9 27 48.9-2.9 35.5-2.9 19 10.5-10.9 27-10.9m0-.1C10.4-11-3 2.4-3 19s13.4 30 30 30 30-13.4 30-30-13.4-30-30-30z"/><path class="st2" d="M27 9.1c5.5 0 9.9 4.4 9.9 9.9s-4.4 9.9-9.9 9.9-9.9-4.4-9.9-9.9 4.4-9.9 9.9-9.9m0-.1c-5.5 0-10 4.5-10 10s4.5 10 10 10 10-4.5 10-10S32.5 9 27 9z"/><path class="st2" d="M27-.9C38-.9 46.9 8 46.9 19S38 38.9 27 38.9C16 38.9 7.1 30 7.1 19S16-.9 27-.9m0-.1C16-1 7 8 7 19s9 20 20 20 20-9 20-20S38-1 27-1z"/><path class="st2" d="M57-11v60H-3v-60h60m0 0H-3v60h60v-60z"/><path class="st3" d="M2-6l50 50m0-50L2 44"/></g><g id="icons"><path class="st5" d="M1 1h52v36H1zm26 0v35.3"/><path class="st5" d="M1 7h14v24H1zm38 0h14v24H39zM1 1h52v6H1zm0 30h52v6H1zm14-12h24"/></g></svg>