<svg xmlns="http://www.w3.org/2000/svg" viewBox="0 0 51 30"><style>.st0{display:none}.st1{display:inline}.st2,.st3{display:none}.st3{fill-rule:evenodd;clip-rule:evenodd;fill:none;stroke:#999;stroke-width:.1;stroke-miterlimit:10}.st4{fill:#5a5959}.st5{fill:none;stroke:#008bd0;stroke-width:2;stroke-linecap:round;stroke-linejoin:round;stroke-miterlimit:10}.st6{fill:#008bd0}.st7{stroke-width:2;stroke-miterlimit:10}.st7,.st8{fill:none;stroke:#008bd0}.st8{stroke-linecap:round;stroke-linejoin:round}.st9{stroke-dasharray:2.0606,3.0909}.st9,.st10{fill:none;stroke:#008bd0;stroke-linecap:round;stroke-linejoin:round}.st10{stroke-dasharray:1.8571,2.7857}.st11{stroke-dasharray:2,3}.st11,.st12{fill:none;stroke:#008bd0;stroke-linecap:round;stroke-linejoin:round}.st12{stroke-dasharray:2.0879,2.0879}.st13{stroke-dasharray:2.1846,2.1846}.st13,.st14{fill:none;stroke:#008bd0;stroke-linecap:round;stroke-linejoin:round}.st14{stroke-dasharray:2.4103,2.4103}.st15{fill-rule:evenodd;clip-rule:evenodd;stroke-width:2}.st15,.st16{fill:none;stroke:#008bd0;stroke-linecap:round;stroke-linejoin:round;stroke-miterlimit:10}.st17{stroke-dasharray:1.9363,2.9045}.st17,.st18{fill:none;stroke:#008bd0;stroke-linecap:round;stroke-linejoin:round}.st18{stroke-dasharray:2.0107,3.0161}.st19{stroke-dasharray:2.1648,3.2473}.st19,.st20{fill:none;stroke:#008bd0;stroke-linecap:round;stroke-linejoin:round}.st20{stroke-width:2}.st21{stroke-dasharray:2.1959,4.3919}.st21,.st22{fill:none;stroke:#008bd0;stroke-width:2;stroke-linecap:round;stroke-linejoin:round}.st22{stroke-dasharray:2.0661,4.1322}.st23{stroke-dasharray:2.9348,3.913}.st23,.st24{fill:none;stroke:#008bd0;stroke-width:2;stroke-linecap:round;stroke-linejoin:round}.st24{stroke-dasharray:2.8015,3.7354}.st25{stroke-dasharray:3,4}.st25,.st26{fill:none;stroke:#008bd0;stroke-width:2;stroke-linecap:round;stroke-linejoin:round}.st26{stroke-dasharray:2.85,3.8}</style><g class="st0 st1" id="grid"><path class="st2" d="M26-13.9C42.5-13.9 55.9-.5 55.9 16S42.5 45.9 26 45.9-3.9 32.5-3.9 16 9.5-13.9 26-13.9m0-.1C9.4-14-4-.6-4 16S9.4 46 26 46s30-13.4 30-30-13.4-30-30-30z"/><path class="st2" d="M26 6.1c5.5 0 9.9 4.4 9.9 9.9s-4.4 9.9-9.9 9.9-9.9-4.4-9.9-9.9 4.4-9.9 9.9-9.9m0-.1c-5.5 0-10 4.5-10 10s4.5 10 10 10 10-4.5 10-10S31.5 6 26 6z"/><path class="st2" d="M26-3.9C37-3.9 45.9 5 45.9 16S37 35.9 26 35.9C15 35.9 6.1 27 6.1 16S15-3.9 26-3.9m0-.1C15-4 6 5 6 16s9 20 20 20 20-9 20-20S37-4 26-4z"/><path class="st2" d="M56-14v60H-4v-60h60m0 0H-4v60h60v-60z"/><path class="st3" d="M1-9l50 50m0-50L1 41"/></g><path class="st5" d="M19 25.5c0 1.9-1.6 3.5-3.5 3.5S12 27.4 12 25.5v-21C12 2.6 13.6 1 15.5 1S19 2.6 19 4.5v21zm-7-5c0 1.9-1.6 3.5-3.5 3.5S5 22.4 5 20.5v-11C5 7.6 6.6 6 8.5 6S12 7.6 12 9.5v11zm28 5c0 1.9-1.6 3.5-3.5 3.5S33 27.4 33 25.5v-21C33 2.6 34.6 1 36.5 1S40 2.6 40 4.5v21zm7-5c0 1.9-1.6 3.5-3.5 3.5S40 22.4 40 20.5v-11C40 7.6 41.6 6 43.5 6S47 7.6 47 9.5v11zM19 15h14M1 15h4m42 0h3" id="icons"/></svg>