<svg xmlns="http://www.w3.org/2000/svg" viewBox="0 0 54 40.9"><style>.st0{display:none}.st1{display:inline}.st2,.st3{display:none}.st3{fill-rule:evenodd;clip-rule:evenodd;fill:none;stroke:#999;stroke-width:.1;stroke-miterlimit:10}.st4{fill:#5a5959}.st5{fill:none;stroke:#008bd0;stroke-width:2;stroke-linecap:round;stroke-linejoin:round;stroke-miterlimit:10}.st6{fill:#008bd0}.st7{stroke-width:2;stroke-miterlimit:10}.st7,.st8{fill:none;stroke:#008bd0}.st8{stroke-linecap:round;stroke-linejoin:round}.st9{stroke-dasharray:2.0606,3.0909}.st9,.st10{fill:none;stroke:#008bd0;stroke-linecap:round;stroke-linejoin:round}.st10{stroke-dasharray:1.8571,2.7857}.st11{stroke-dasharray:2,3}.st11,.st12{fill:none;stroke:#008bd0;stroke-linecap:round;stroke-linejoin:round}.st12{stroke-dasharray:2.0879,2.0879}.st13{stroke-dasharray:2.1846,2.1846}.st13,.st14{fill:none;stroke:#008bd0;stroke-linecap:round;stroke-linejoin:round}.st14{stroke-dasharray:2.4103,2.4103}.st15{fill-rule:evenodd;clip-rule:evenodd;stroke-width:2}.st15,.st16{fill:none;stroke:#008bd0;stroke-linecap:round;stroke-linejoin:round;stroke-miterlimit:10}.st17{stroke-dasharray:1.9363,2.9045}.st17,.st18{fill:none;stroke:#008bd0;stroke-linecap:round;stroke-linejoin:round}.st18{stroke-dasharray:2.0107,3.0161}.st19{stroke-dasharray:2.1648,3.2473}.st19,.st20{fill:none;stroke:#008bd0;stroke-linecap:round;stroke-linejoin:round}.st20{stroke-width:2}.st21{stroke-dasharray:2.1959,4.3919}.st21,.st22{fill:none;stroke:#008bd0;stroke-width:2;stroke-linecap:round;stroke-linejoin:round}.st22{stroke-dasharray:2.0661,4.1322}.st23{stroke-dasharray:2.9348,3.913}.st23,.st24{fill:none;stroke:#008bd0;stroke-width:2;stroke-linecap:round;stroke-linejoin:round}.st24{stroke-dasharray:2.8015,3.7354}.st25{stroke-dasharray:3,4}.st25,.st26{fill:none;stroke:#008bd0;stroke-width:2;stroke-linecap:round;stroke-linejoin:round}.st26{stroke-dasharray:2.85,3.8}</style><g class="st0 st1" id="grid"><path class="st2" d="M27-10c16.5 0 29.9 13.4 29.9 29.9S43.5 49.8 27 49.8-2.9 36.4-2.9 19.9 10.5-10 27-10m0-.1c-16.6 0-30 13.4-30 30s13.4 30 30 30 30-13.4 30-30-13.4-30-30-30z"/><path class="st2" d="M27 10c5.5 0 9.9 4.4 9.9 9.9s-4.4 9.9-9.9 9.9-9.9-4.4-9.9-9.9S21.5 10 27 10m0-.1c-5.5 0-10 4.5-10 10s4.5 10 10 10 10-4.5 10-10-4.5-10-10-10z"/><path class="st2" d="M27 0c11 0 19.9 8.9 19.9 19.9S38 39.8 27 39.8c-11 0-19.9-8.9-19.9-19.9S16 0 27 0m0-.1c-11 0-20 9-20 20s9 20 20 20 20-9 20-20-9-20-20-20z"/><path class="st2" d="M57-10.1v60H-3v-60h60m0 0H-3v60h60v-60z"/><path class="st3" d="M2-5.1l50 50m0-50l-50 50"/></g><g id="icons"><path class="st5" d="M17.8 20.5c0 7.8 3.6 14.8 9.2 19.5 5.6-4.6 9.2-11.6 9.2-19.5S32.6 5.6 27 1c-5.6 4.6-9.2 11.6-9.2 19.5z"/><path class="st5" d="M32.6 19.2c-5.5 5.5-8 13-7.3 20.2 7.2.7 14.7-1.7 20.2-7.3s8-13 7.3-20.2c-7.2-.7-14.6 1.8-20.2 7.3z"/><path class="st5" d="M8.4 32.2c5.5 5.5 13 8 20.2 7.3.7-7.2-1.7-14.7-7.3-20.2s-13-8-20.2-7.3c-.7 7.2 1.7 14.6 7.3 20.2z"/><path class="st5" d="M25 18.1c-2.8 7.3-2 15.1 1.6 21.5 6.9-2.3 12.7-7.6 15.5-14.9s2-15.1-1.6-21.5C33.7 5.6 27.8 10.8 25 18.1z"/><path class="st5" d="M29 18.1c2.8 7.3 2 15.1-1.6 21.5-6.9-2.3-12.7-7.6-15.5-14.9s-2-15.1 1.6-21.5c6.8 2.4 12.7 7.6 15.5 14.9z"/></g></svg>