<svg xmlns="http://www.w3.org/2000/svg" viewBox="0 0 51.6 42.4"><style>.st0{display:none}.st1{display:inline}.st2,.st3{display:none}.st3{fill-rule:evenodd;clip-rule:evenodd;fill:none;stroke:#999;stroke-width:.1;stroke-miterlimit:10}.st4{fill:#5a5959}.st5{fill:none;stroke-width:2;stroke-linecap:round;stroke-linejoin:round;stroke-miterlimit:10}.st5,.st6{stroke:#e30613}.st6{display:inline}.st6,.st7{fill:none;stroke-width:2;stroke-linecap:round;stroke-linejoin:round;stroke-miterlimit:10}.st7{stroke:#008bd0}.st8{fill:#008bd0}.st9{fill:#7aaf3b;stroke:#008bd0;stroke-linecap:round;stroke-linejoin:round}.st9,.st10{stroke-width:2;stroke-miterlimit:10}.st10,.st11{fill:none;stroke:#008bd0}.st11,.st12{stroke-linecap:round;stroke-linejoin:round}.st12{stroke-dasharray:2.0606,3.0909}.st12,.st13{fill:none;stroke:#008bd0}.st13{stroke-dasharray:1.8571,2.7857}.st13,.st14{stroke-linecap:round;stroke-linejoin:round}.st14{stroke-dasharray:2,3}.st14,.st15{fill:none;stroke:#008bd0}.st15{stroke-dasharray:2.0879,2.0879}.st15,.st16{stroke-linecap:round;stroke-linejoin:round}.st16{stroke-dasharray:2.1846,2.1846}.st16,.st17{fill:none;stroke:#008bd0}.st17{stroke-dasharray:2.4103,2.4103}.st17,.st18{stroke-linecap:round;stroke-linejoin:round}.st18{fill-rule:evenodd;clip-rule:evenodd;stroke-miterlimit:10}.st18,.st19{fill:none;stroke:#008bd0;stroke-width:2}.st19{stroke-dasharray:2.0143,3.0214}.st19,.st20{stroke-miterlimit:10}.st20{stroke-dasharray:2.0133,3.0199}.st20,.st21{fill:none;stroke:#008bd0;stroke-width:2}.st21{stroke-dasharray:1.8982,2.8472}.st21,.st22{stroke-miterlimit:10}.st22,.st23{fill:none;stroke:#008bd0;stroke-linecap:round;stroke-linejoin:round}.st23{stroke-dasharray:1.9363,2.9045}.st24{stroke-dasharray:2.0107,3.0161}.st24,.st25{fill:none;stroke:#008bd0;stroke-linecap:round;stroke-linejoin:round}.st25{stroke-dasharray:2.1648,3.2473}</style><g class="st0 st1" id="grid"><path class="st2" d="M24.8-10.5c16.5 0 29.9 13.4 29.9 29.9S41.3 49.3 24.8 49.3-5.1 35.8-5.1 19.4 8.4-10.5 24.8-10.5m0-.1c-16.6 0-30 13.4-30 30s13.4 30 30 30 30-13.4 30-30-13.4-30-30-30z"/><path class="st2" d="M24.8 9.5c5.5 0 9.9 4.4 9.9 9.9s-4.4 9.9-9.9 9.9-9.9-4.4-9.9-9.9 4.5-9.9 9.9-9.9m0-.1c-5.5 0-10 4.5-10 10s4.5 10 10 10 10-4.5 10-10-4.4-10-10-10z"/><path class="st2" d="M24.8-.5c11 0 19.9 8.9 19.9 19.9s-8.9 19.9-19.9 19.9c-11 0-19.9-8.9-19.9-19.9S13.9-.5 24.8-.5m0-.1c-11 0-20 9-20 20s9 20 20 20 20-9 20-20-8.9-20-20-20z"/><path class="st2" d="M54.8-10.6v60h-60v-60h60m0 0h-60v60h60v-60z"/><path class="st3" d="M-.2-5.6l50 50m0-50l-50 50"/></g><g id="icons"><path class="st7" d="M49.9 9.5c-.4-1.7-2.2-2.8-3.9-2.4-1.7.4-2.8 2.2-2.4 3.9.5 1.9.6 4.3.4 4.9-.3.6-1 2.5-8 4.1 0 0 .1-2.7-2.4-2.7h-16c-2.4 0-2 2.6-2 2.6-7-1.5-7.7-3.5-8-4-.3-.7-.1-3.1.3-5 .4-1.7-.6-3.5-2.4-3.9-1.6-.3-3.4.7-3.8 2.5-.4 1.5-1.5 6.8.4 9.9 1.9 3.2 6.4 5.5 13.2 7 .7.2 1.4.3 2 .4l1.2 12.9c0 1 .8 1.7 1.9 1.7h11.1c1 0 1.9-.6 1.9-1.7l1.2-13c.6-.1 1.3-.2 2-.4 6.8-1.5 11.3-3.8 13.2-7 1.6-3.1.5-8.3.1-9.8z"/><ellipse class="st10" cx="25.5" cy="7.1" rx="5.9" ry="6.1"/></g></svg>