<svg id="Layer_1" xmlns="http://www.w3.org/2000/svg" viewBox="-275 397.9 44 47"><style>.st0{display:none}.st1{display:inline}.st2,.st3{display:none}.st3{stroke:#999;stroke-width:.1}.st3,.st4{fill:none;stroke-miterlimit:10}.st4{stroke:#3aaa35;stroke-width:2;stroke-linecap:round;stroke-linejoin:round}</style><g class="st0 st1" id="grid"><path class="st2" d="M-256.8 392c16.5 0 29.9 13.4 29.9 29.9s-13.4 29.9-29.9 29.9-29.9-13.4-29.9-29.9 13.4-29.9 29.9-29.9m0-.1c-16.6 0-30 13.4-30 30s13.4 30 30 30 30-13.4 30-30-13.4-30-30-30z"/><path class="st2" d="M-256.8 412c5.5 0 9.9 4.4 9.9 9.9s-4.4 9.9-9.9 9.9-9.9-4.4-9.9-9.9 4.5-9.9 9.9-9.9m0-.1c-5.5 0-10 4.5-10 10s4.5 10 10 10 10-4.5 10-10-4.5-10-10-10z"/><path class="st2" d="M-256.8 402c11 0 19.9 8.9 19.9 19.9s-8.9 19.9-19.9 19.9c-11 0-19.9-8.9-19.9-19.9s8.9-19.9 19.9-19.9m0-.1c-11 0-20 9-20 20s9 20 20 20 20-9 20-20-8.9-20-20-20z"/><path class="st2" d="M-226.8 391.9v60h-60v-60h60m0 0h-60v60h60v-60z"/><path class="st3" d="M-281.8 396.9l50 50m0-50l-50 50"/></g><g id="icons"><path class="st4" d="M-259.8 414.9v12h10.8l6.3 11.2 4.8-1.4m-21.9-16.8h5"/><circle class="st4" cx="-260.2" cy="410.5" r="3.6"/><path class="st4" d="M-249.9 436.7c-2 4.3-6.4 7.2-11.4 7.2-7 0-12.7-5.7-12.7-12.7 0-5.3 3.2-9.8 7.7-11.7M-248 411.9l7.2-6 8 6zm7.2-6v-3s2.4-.1 2.4-2c0-1.5-1.2-2-1.8-2-1.9 0-2.3 2-2.3 2"/></g></svg>