<svg xmlns="http://www.w3.org/2000/svg" viewBox="0 0 44.2 48"><style>.st0{display:none}.st1{display:inline}.st2,.st3{display:none}.st3{fill-rule:evenodd;clip-rule:evenodd;fill:none;stroke:#999;stroke-width:.1;stroke-miterlimit:10}.st4{fill:#5a5959}.st5{fill:none;stroke:#3aaa35;stroke-width:2;stroke-linecap:round;stroke-linejoin:round;stroke-miterlimit:10}.st6{fill:#3aaa35}.st7{font-family:&amp;apos;Lato-Bold&amp;apos;}.st8{font-size:14.2222px}.st9{stroke-width:2;stroke-miterlimit:10}.st9,.st10{fill:none;stroke:#3aaa35}.st10{stroke-linecap:round;stroke-linejoin:round}.st11{stroke-dasharray:2.0606,3.0909}.st11,.st12{fill:none;stroke:#3aaa35;stroke-linecap:round;stroke-linejoin:round}.st12{stroke-dasharray:1.8571,2.7857}.st13{stroke-dasharray:2,3}.st13,.st14{fill:none;stroke:#3aaa35;stroke-linecap:round;stroke-linejoin:round}.st14{stroke-dasharray:2.0879,2.0879}.st15{stroke-dasharray:2.1846,2.1846}.st15,.st16{fill:none;stroke:#3aaa35;stroke-linecap:round;stroke-linejoin:round}.st16{stroke-dasharray:2.4103,2.4103}.st17{fill-rule:evenodd;clip-rule:evenodd;stroke-width:2}.st17,.st18{fill:none;stroke:#3aaa35;stroke-linecap:round;stroke-linejoin:round;stroke-miterlimit:10}.st19{stroke-dasharray:1.9363,2.9045}.st19,.st20{fill:none;stroke:#3aaa35;stroke-linecap:round;stroke-linejoin:round}.st20{stroke-dasharray:2.0107,3.0161}.st21{stroke-dasharray:2.1648,3.2473}.st21,.st22{fill:none;stroke:#3aaa35;stroke-linecap:round;stroke-linejoin:round}.st22{stroke-width:2}.st23{stroke-dasharray:2.1959,4.3919}.st23,.st24{fill:none;stroke:#3aaa35;stroke-width:2;stroke-linecap:round;stroke-linejoin:round}.st24{stroke-dasharray:2.0661,4.1322}.st25{stroke-dasharray:2.9348,3.913}.st25,.st26{fill:none;stroke:#3aaa35;stroke-width:2;stroke-linecap:round;stroke-linejoin:round}.st26{stroke-dasharray:2.8015,3.7354}.st27{stroke-dasharray:3,4}.st27,.st28{fill:none;stroke:#3aaa35;stroke-width:2;stroke-linecap:round;stroke-linejoin:round}.st28{stroke-dasharray:2.85,3.8}</style><g class="st0 st1" id="grid"><path class="st2" d="M18.2-4.9C34.7-4.9 48.1 8.5 48.1 25S34.7 54.9 18.2 54.9-11.7 41.5-11.7 25 1.7-4.9 18.2-4.9m0-.1c-16.6 0-30 13.4-30 30s13.4 30 30 30 30-13.4 30-30-13.4-30-30-30z"/><path class="st2" d="M18.2 15.1c5.5 0 9.9 4.4 9.9 9.9s-4.4 9.9-9.9 9.9-9.9-4.4-9.9-9.9 4.5-9.9 9.9-9.9m0-.1c-5.5 0-10 4.5-10 10s4.5 10 10 10 10-4.5 10-10-4.5-10-10-10z"/><path class="st2" d="M18.2 5.1c11 0 19.9 8.9 19.9 19.9s-8.9 19.9-19.9 19.9C7.2 44.9-1.7 36-1.7 25S7.2 5.1 18.2 5.1m0-.1c-11 0-20 9-20 20s9 20 20 20 20-9 20-20-8.9-20-20-20z"/><path class="st2" d="M48.2-5v60h-60V-5h60m0 0h-60v60h60V-5z"/><path class="st3" d="M-6.8 0l50 50m0-50l-50 50"/></g><g id="icons"><path class="st5" d="M15.2 18v12H26l6.3 11.2 4.8-1.4M15.2 23h5"/><circle class="st5" cx="14.8" cy="13.7" r="3.6"/><path class="st5" d="M25.1 39.8c-2 4.3-6.4 7.2-11.4 7.2C6.7 47 1 41.3 1 34.3c0-5.3 3.2-9.8 7.7-11.7"/><text transform="translate(30.77 14.54)" class="st6 st7 st8">P</text><path class="st5" d="M43.2 14c0 1.7-1.3 3-3 3h-10c-1.7 0-3-1.3-3-3V4c0-1.7 1.3-3 3-3h10c1.7 0 3 1.3 3 3v10z"/></g></svg>