<svg xmlns="http://www.w3.org/2000/svg" viewBox="0 0 50 50"><style>.st0{display:none}.st1{display:inline}.st2{display:none}.st3{display:none;fill-rule:evenodd;clip-rule:evenodd;fill:none;stroke:#999;stroke-width:.1;stroke-miterlimit:10}.st4{fill:#5a5959}.st5{fill:none;stroke:#3aaa35;stroke-width:2;stroke-linecap:round;stroke-linejoin:round;stroke-miterlimit:10}.st6{fill:#3aaa35}.st7{stroke-width:2;stroke-miterlimit:10}.st7,.st8{fill:none;stroke:#3aaa35}.st8{stroke-linecap:round;stroke-linejoin:round}.st9{stroke-dasharray:2.0606,3.0909}.st9,.st10{fill:none;stroke:#3aaa35;stroke-linecap:round;stroke-linejoin:round}.st10{stroke-dasharray:1.8571,2.7857}.st11{stroke-dasharray:2,3}.st11,.st12{fill:none;stroke:#3aaa35;stroke-linecap:round;stroke-linejoin:round}.st12{stroke-dasharray:2.0879,2.0879}.st13{stroke-dasharray:2.1846,2.1846}.st13,.st14{fill:none;stroke:#3aaa35;stroke-linecap:round;stroke-linejoin:round}.st14{stroke-dasharray:2.4103,2.4103}.st15{fill-rule:evenodd;clip-rule:evenodd;stroke-width:2}.st15,.st16{fill:none;stroke:#3aaa35;stroke-linecap:round;stroke-linejoin:round;stroke-miterlimit:10}.st17{stroke-dasharray:1.9363,2.9045}.st17,.st18{fill:none;stroke:#3aaa35;stroke-linecap:round;stroke-linejoin:round}.st18{stroke-dasharray:2.0107,3.0161}.st19{stroke-dasharray:2.1648,3.2473}.st19,.st20{fill:none;stroke:#3aaa35;stroke-linecap:round;stroke-linejoin:round}.st20{stroke-width:2}.st21{stroke-dasharray:2.1959,4.3919}.st21,.st22{fill:none;stroke:#3aaa35;stroke-width:2;stroke-linecap:round;stroke-linejoin:round}.st22{stroke-dasharray:2.0661,4.1322}.st23{stroke-dasharray:2.9348,3.913}.st23,.st24{fill:none;stroke:#3aaa35;stroke-width:2;stroke-linecap:round;stroke-linejoin:round}.st24{stroke-dasharray:2.8015,3.7354}.st25{stroke-dasharray:3,4}.st25,.st26{fill:none;stroke:#3aaa35;stroke-width:2;stroke-linecap:round;stroke-linejoin:round}.st26{stroke-dasharray:2.85,3.8}</style><g class="st0 st1" id="grid"><path class="st2" d="M25-4.9C41.5-4.9 54.9 8.5 54.9 25S41.5 54.9 25 54.9-4.9 41.5-4.9 25 8.5-4.9 25-4.9m0-.1C8.4-5-5 8.4-5 25S8.4 55 25 55s30-13.4 30-30S41.6-5 25-5z"/><path class="st2" d="M25 15.1c5.5 0 9.9 4.4 9.9 9.9s-4.4 9.9-9.9 9.9-9.9-4.4-9.9-9.9 4.4-9.9 9.9-9.9m0-.1c-5.5 0-10 4.5-10 10s4.5 10 10 10 10-4.5 10-10-4.5-10-10-10z"/><path class="st2" d="M25 5.1C36 5.1 44.9 14 44.9 25S36 44.9 25 44.9C14 44.9 5.1 36 5.1 25S14 5.1 25 5.1m0-.1C14 5 5 14 5 25s9 20 20 20 20-9 20-20S36 5 25 5z"/><path class="st2" d="M55-5v60H-5V-5h60m0 0H-5v60h60V-5z"/><path class="st3" d="M0 0l50 50M50 0L0 50"/></g><g id="icons"><path class="st5" d="M1 1h24v48H1zM25 16.7h24V49H25z"/><path class="st5" d="M32.4 38.2h8.3V49h-8.3zM5.1 7.6h5M5.1 14.9h5M5.1 22.1h5M5.1 29.3h5M5.1 36.6h5M15.1 7.6H20M15.1 14.9H20M29.1 24.2h5M29.1 31.4h5M39.1 24.2H44M39.1 31.4H44M15.1 22.1H20M15.1 29.3H20M15.1 36.6H20"/></g></svg>