<svg xmlns="http://www.w3.org/2000/svg" viewBox="0 0 56.7 46.5"><style>.st0{display:none}.st1{display:inline}.st2{display:none}.st3{display:none;fill-rule:evenodd;clip-rule:evenodd;fill:none;stroke:#999;stroke-width:.1;stroke-miterlimit:10}.st4{fill:#5a5959}.st5{fill:none;stroke:#3aaa35;stroke-width:2;stroke-linecap:round;stroke-linejoin:round;stroke-miterlimit:10}.st6{fill:#3aaa35}.st7{stroke-width:2;stroke-miterlimit:10}.st7,.st8{fill:none;stroke:#3aaa35}.st8{stroke-linecap:round;stroke-linejoin:round}.st9{stroke-dasharray:2.0606,3.0909}.st9,.st10{fill:none;stroke:#3aaa35;stroke-linecap:round;stroke-linejoin:round}.st10{stroke-dasharray:1.8571,2.7857}.st11{stroke-dasharray:2,3}.st11,.st12{fill:none;stroke:#3aaa35;stroke-linecap:round;stroke-linejoin:round}.st12{stroke-dasharray:2.0879,2.0879}.st13{stroke-dasharray:2.1846,2.1846}.st13,.st14{fill:none;stroke:#3aaa35;stroke-linecap:round;stroke-linejoin:round}.st14{stroke-dasharray:2.4103,2.4103}.st15{fill-rule:evenodd;clip-rule:evenodd;stroke-width:2}.st15,.st16{fill:none;stroke:#3aaa35;stroke-linecap:round;stroke-linejoin:round;stroke-miterlimit:10}.st17{stroke-dasharray:1.9363,2.9045}.st17,.st18{fill:none;stroke:#3aaa35;stroke-linecap:round;stroke-linejoin:round}.st18{stroke-dasharray:2.0107,3.0161}.st19{stroke-dasharray:2.1648,3.2473}.st19,.st20{fill:none;stroke:#3aaa35;stroke-linecap:round;stroke-linejoin:round}.st20{stroke-width:2}.st21{stroke-dasharray:2.1959,4.3919}.st21,.st22{fill:none;stroke:#3aaa35;stroke-width:2;stroke-linecap:round;stroke-linejoin:round}.st22{stroke-dasharray:2.0661,4.1322}.st23{stroke-dasharray:2.9348,3.913}.st23,.st24{fill:none;stroke:#3aaa35;stroke-width:2;stroke-linecap:round;stroke-linejoin:round}.st24{stroke-dasharray:2.8015,3.7354}.st25{stroke-dasharray:3,4}.st25,.st26{fill:none;stroke:#3aaa35;stroke-width:2;stroke-linecap:round;stroke-linejoin:round}.st26{stroke-dasharray:2.85,3.8}</style><g class="st0 st1" id="grid"><path class="st2" d="M27.7-5.3c16.5 0 29.9 13.4 29.9 29.9S44.2 54.5 27.7 54.5-2.2 41.1-2.2 24.6 11.2-5.3 27.7-5.3m0-.1c-16.6 0-30 13.4-30 30s13.4 30 30 30 30-13.4 30-30c0-16.5-13.4-30-30-30z"/><path class="st2" d="M27.7 14.7c5.5 0 9.9 4.4 9.9 9.9s-4.4 9.9-9.9 9.9-9.9-4.4-9.9-9.9 4.5-9.9 9.9-9.9m0-.1c-5.5 0-10 4.5-10 10s4.5 10 10 10 10-4.5 10-10-4.5-10-10-10z"/><path class="st2" d="M27.7 4.7c11 0 19.9 8.9 19.9 19.9s-8.9 19.9-19.9 19.9c-11 0-19.9-8.9-19.9-19.9S16.7 4.7 27.7 4.7m0-.1c-11 0-20 9-20 20s9 20 20 20 20-9 20-20-8.9-20-20-20z"/><path class="st2" d="M57.7-5.4v60h-60v-60h60m0 0h-60v60h60v-60z"/><path class="st3" d="M2.7-.4l50 50M52.7-.4l-50 50"/></g><g id="icons"><path class="st5" d="M33.8 1L6.1 45.5h43.8L22.2 1"/><path class="st5" d="M1 45.5h40.1L28 24.3 14.9 45.5h40.8"/></g></svg>