<svg id="Layer_1" xmlns="http://www.w3.org/2000/svg" viewBox="-272 396.5 50 50.4"><style>.st0{display:none}.st1{display:inline}.st2{display:none}.st3{display:none;fill:none;stroke:#999;stroke-width:.1;stroke-miterlimit:10}.st4{fill:#3aaa35}.st5{fill:none;stroke:#3aaa35;stroke-width:2;stroke-linecap:round;stroke-linejoin:round;stroke-miterlimit:10}</style><g class="st0 st1" id="grid"><path class="st2" d="M-519 788.9c16.5 0 29.9 13.4 29.9 29.9s-13.4 29.9-29.9 29.9-29.9-13.4-29.9-29.9 13.4-29.9 29.9-29.9m0-.1c-16.6 0-30 13.4-30 30s13.4 30 30 30 30-13.4 30-30-13.4-30-30-30z"/><path class="st2" d="M-519 808.9c5.5 0 9.9 4.4 9.9 9.9s-4.4 9.9-9.9 9.9-9.9-4.4-9.9-9.9 4.4-9.9 9.9-9.9m0-.1c-5.5 0-10 4.5-10 10s4.5 10 10 10 10-4.5 10-10-4.5-10-10-10z"/><path class="st2" d="M-519 798.9c11 0 19.9 8.9 19.9 19.9s-8.9 19.9-19.9 19.9-19.9-8.9-19.9-19.9 8.9-19.9 19.9-19.9m0-.1c-11 0-20 9-20 20s9 20 20 20 20-9 20-20-9-20-20-20z"/><path class="st2" d="M-489 788.8v60h-60v-60h60m0 0h-60v60h60v-60z"/><path class="st3" d="M-544 793.8l50 50M-494 793.8l-50 50"/></g><g id="icons"><path class="st4" d="M-240.7 415h-1.9c-.2 0-.4-.1-.5-.2s-.2-.2-.3-.4l-1-2.6h-5.3l-1 2.6c0 .1-.1.3-.3.4-.1.1-.3.2-.5.2h-1.9l5.1-12.9h2.5l5.1 12.9zm-8.4-4.9h4.1l-1.5-4.2c-.1-.2-.2-.4-.2-.7l-.3-.9c-.1.3-.2.6-.2.8-.1.3-.2.5-.2.7l-1.7 4.3z"/><path class="st5" d="M-236.4 415.2c0 2.2-1.7 4-3.9 4h-13.4c-2.2 0-4-1.8-4-4v-13.3c0-2.2 1.8-4 4-4h13.3c2.2 0 4 1.8 4 4v13.3z"/><path class="st4" d="M-238.5 441.7v-12.9h4.5c.8 0 1.6.1 2.2.2.6.2 1.1.4 1.5.7.4.3.7.7.8 1.1.2.4.3.9.3 1.4 0 .3 0 .6-.1.9s-.2.5-.4.8c-.2.2-.4.5-.7.7s-.6.4-1 .5c1.8.4 2.7 1.4 2.7 2.9 0 .5-.1 1.1-.3 1.5-.2.5-.5.9-.9 1.2-.4.3-.9.6-1.5.8-.6.2-1.2.3-2 .3h-5.1v-.1zm2.4-7.3h1.9c.8 0 1.4-.1 1.9-.4s.6-.8.6-1.4c0-.7-.2-1.2-.6-1.4-.4-.3-1-.4-1.8-.4h-2.1l.1 3.6zm0 1.6v3.8h2.4c.4 0 .8-.1 1.1-.2s.5-.3.7-.4c.2-.2.3-.4.4-.6s.1-.5.1-.8 0-.5-.1-.8c-.1-.2-.2-.4-.4-.6s-.4-.3-.7-.4-.7-.1-1.1-.1l-2.4.1z"/><path class="st5" d="M-223 441.9c0 2.2-1.8 4-4 4h-13.3c-2.2 0-4-1.8-4-4v-13.3c0-2.2 1.8-4 4-4h13.3c2.2 0 4 1.8 4 4v13.3z"/><g><path class="st4" d="M-256.2 438.6c.1 0 .2.1.3.2l.9 1c-.5.6-1.2 1.1-1.9 1.5-.8.3-1.7.5-2.8.5-1 0-1.8-.2-2.6-.5s-1.4-.8-2-1.4c-.5-.6-1-1.3-1.2-2.1-.3-.8-.4-1.7-.4-2.7s.2-1.9.5-2.7c.4-.6.8-1.3 1.4-1.9s1.3-1 2.1-1.4c.8-.3 1.7-.5 2.7-.5s1.8.2 2.5.5 1.3.7 1.8 1.2l-.8 1.1c0 .1-.1.1-.2.2s-.2.1-.3.1-.3-.1-.4-.2-.3-.2-.5-.3c-.2-.1-.5-.2-.8-.3-.3-.1-.8-.2-1.3-.2-.6 0-1.2.1-1.7.3-.5.2-.9.5-1.3.9s-.7.9-.9 1.4c-.2.6-.3 1.2-.3 1.9s.1 1.4.3 1.9c.2.6.5 1 .8 1.4.4.4.8.7 1.2.9.5.2 1 .3 1.5.3.3 0 .6 0 .9-.1.3 0 .5-.1.7-.2l.6-.3c.2-.1.4-.3.6-.5.1-.1.1-.1.2-.1.3.2.3.1.4.1z"/><path class="st5" d="M-249.7 441.9c0 2.2-1.8 4-4 4H-267c-2.2 0-4-1.8-4-4v-13.3c0-2.2 1.8-4 4-4h13.3c2.2 0 4 1.8 4 4v13.3z"/></g></g></svg>