<svg id="Layer_1" xmlns="http://www.w3.org/2000/svg" viewBox="-264 384.9 65.9 72"><style>.st0{display:none}.st1{display:inline}.st2{display:none}.st3{display:none;fill:none;stroke:#999;stroke-width:.1;stroke-miterlimit:10}.st4{display:inline;fill:none}.st5{enable-background:new}.st6{fill:#5a5959}.st7{fill:none;stroke:#3aaa35;stroke-width:2;stroke-linecap:round;stroke-linejoin:round;stroke-miterlimit:10}</style><g class="st0 st1" id="grid"><path class="st2" d="M-235.7 374c24.8 0 44.9 20.1 44.9 44.9 0 24.8-20.1 44.9-44.9 44.9s-44.9-20.1-44.9-44.9c0-24.8 20.2-44.9 44.9-44.9m0-.1c-24.9 0-45 20.1-45 45s20.1 45 45 45 45-20.1 45-45-20.1-45-45-45z"/><path class="st2" d="M-235.7 404c8.2 0 14.9 6.7 14.9 14.9s-6.7 14.9-14.9 14.9-14.9-6.7-14.9-14.9 6.7-14.9 14.9-14.9m0-.1c-8.3 0-15 6.7-15 15s6.7 15 15 15 15-6.7 15-15-6.7-15-15-15z"/><path class="st2" d="M-235.7 389c16.5 0 29.9 13.4 29.9 29.9s-13.4 29.9-29.9 29.9c-16.4 0-29.9-13.4-29.9-29.9s13.5-29.9 29.9-29.9m0-.1c-16.6 0-30 13.4-30 30s13.4 30 30 30 30-13.4 30-30-13.4-30-30-30z"/><path class="st2" d="M-190.7 373.9v90h-90v-90h90m0 0h-90v90h90v-90z"/><path class="st3" d="M-273.2 381.4l75 75M-198.2 381.4l-75 75"/></g><g id="copy" class="st0"><path class="st4" d="M-348.9 425.9h99.3v18h-99.3z"/><text transform="translate(-348.92 431.713)" fill="#5a5959" font-family="Lato-Light" font-size="8">Diving</text></g><g id="icons"><path class="st7" d="M-226.5 441h27.4M-220.4 434.6l-6.1-15.2 9.2-9.2-18.3-12.1M-229.5 401.1l15.2-12.2M-263 449.8s3.9 6.1 12.2 6.1 11.3-9.1 21.3-9.1c8.2 0 12.2 6.1 12.2 6.1"/><circle class="st7" cx="-238.7" cy="392" r="6.1"/></g></svg>