<svg xmlns="http://www.w3.org/2000/svg" viewBox="0 0 74 74"><style>.st0{fill:#999}.st1{fill-rule:evenodd;clip-rule:evenodd;fill:none;stroke:#999;stroke-width:.1;stroke-miterlimit:10}.st2{fill:#5a5959}.st3{display:none;fill:none}.st4{font-family:&apos;Lato-Regular&apos;}.st5{font-size:8px}.st6{display:none}.st7{display:inline}.st8{fill:none;stroke-width:2;stroke-linecap:round;stroke-linejoin:round;stroke-miterlimit:10}.st8,.st9{stroke:#e30613}.st9{display:inline}.st9,.st10{fill:none;stroke-width:2;stroke-linecap:round;stroke-linejoin:round;stroke-miterlimit:10}.st10{stroke:#3aaa35}.st11{fill:#3aaa35}.st12{fill:#7aaf3b;stroke:#3aaa35;stroke-linecap:round;stroke-linejoin:round}.st12,.st13{stroke-width:2;stroke-miterlimit:10}.st13,.st14{fill:none;stroke:#3aaa35}.st14,.st15{stroke-linecap:round;stroke-linejoin:round}.st15{stroke-dasharray:2.0606,3.0909}.st15,.st16{fill:none;stroke:#3aaa35}.st16{stroke-dasharray:1.8571,2.7857}.st16,.st17{stroke-linecap:round;stroke-linejoin:round}.st17{stroke-dasharray:2,3}.st17,.st18{fill:none;stroke:#3aaa35}.st18{stroke-dasharray:2.0879,2.0879}.st18,.st19{stroke-linecap:round;stroke-linejoin:round}.st19{stroke-dasharray:2.1846,2.1846}.st19,.st20{fill:none;stroke:#3aaa35}.st20{stroke-dasharray:2.4103,2.4103}.st20,.st21{stroke-linecap:round;stroke-linejoin:round}.st21{fill-rule:evenodd;clip-rule:evenodd;stroke-miterlimit:10}.st21,.st22{fill:none;stroke:#3aaa35;stroke-width:2}.st22{stroke-dasharray:2.0143,3.0214}.st22,.st23{stroke-miterlimit:10}.st23{stroke-dasharray:2.0133,3.0199}.st23,.st24{fill:none;stroke:#3aaa35;stroke-width:2}.st24{stroke-dasharray:1.8982,2.8472}.st24,.st25{stroke-miterlimit:10}.st25,.st26{fill:none;stroke:#3aaa35;stroke-linecap:round;stroke-linejoin:round}.st26{stroke-dasharray:1.9363,2.9045}.st27{stroke-dasharray:2.0107,3.0161}.st27,.st28{fill:none;stroke:#3aaa35;stroke-linecap:round;stroke-linejoin:round}.st28{stroke-dasharray:2.1648,3.2473}</style><g id="grid"><path class="st0" d="M36.2-7.9C61-7.9 81.1 12.2 81.1 37S61 81.9 36.2 81.9-8.7 61.8-8.7 37 11.5-7.9 36.2-7.9m0-.1c-24.9 0-45 20.1-45 45s20.1 45 45 45 45-20.1 45-45-20.1-45-45-45z"/><path class="st0" d="M36.2 22.1c8.2 0 14.9 6.7 14.9 14.9s-6.7 14.9-14.9 14.9S21.3 45.2 21.3 37 28 22.1 36.2 22.1m0-.1c-8.3 0-15 6.7-15 15s6.7 15 15 15 15-6.7 15-15-6.7-15-15-15z"/><path class="st0" d="M36.2 7.1c16.5 0 29.9 13.4 29.9 29.9S52.7 66.9 36.2 66.9 6.3 53.5 6.3 37 19.7 7.1 36.2 7.1m0-.1c-16.6 0-30 13.4-30 30s13.4 30 30 30 30-13.4 30-30-13.4-30-30-30z"/><path class="st0" d="M81.2-8v90h-90V-8h90m0 0h-90v90h90V-8z"/><path class="st1" d="M-1.3-.5l75 75M73.7-.5l-75 75"/></g><g id="copy"><path class="st3" d="M-77.1 30h99.3v18h-99.3z"/><text transform="translate(-77.052 35.89)" class="st2 st4 st5">Football pitches</text></g><g id="icons"><circle class="st10" cx="37" cy="37" r="36"/><path class="st10" d="M66.5 17.4l-3.3 9.8 9.8 6.5M66.5 56.6H53.4L54 68M7.5 56.6h13.1L20 68M23.9 33.7L37 23.9l13.1 9.8-6.6 13.1h-13zM50.1 33.7l13.1-6.5M7.5 17.4l3.3 9.8L1 33.7M23.9 33.7l-13.1-6.5M48 4l-11 6.8-10.9-6.9M37.2 23.9L37 10.8M43.5 46.8l9.9 9.8M30.5 46.8l-9.9 9.8"/></g></svg>