<svg xmlns="http://www.w3.org/2000/svg" viewBox="0 0 68.7 69"><style>.st0{fill:#999}.st1{fill-rule:evenodd;clip-rule:evenodd;fill:none;stroke:#999;stroke-width:.1;stroke-miterlimit:10}.st2{fill:#5a5959}.st3{display:none;fill:none}.st4{font-family:&apos;Lato-Light&apos;}.st5{font-size:8px}.st6{display:none}.st7{display:inline}.st8{fill:none;stroke-width:2;stroke-linecap:round;stroke-linejoin:round;stroke-miterlimit:10}.st8,.st9{stroke:#e30613}.st9{display:inline}.st9,.st10{fill:none;stroke-width:2;stroke-linecap:round;stroke-linejoin:round;stroke-miterlimit:10}.st10{stroke:#3aaa35}.st11{fill:#3aaa35}.st12{fill:#7aaf3b;stroke:#3aaa35;stroke-linecap:round;stroke-linejoin:round}.st12,.st13{stroke-width:2;stroke-miterlimit:10}.st13,.st14{fill:none;stroke:#3aaa35}.st14,.st15{stroke-linecap:round;stroke-linejoin:round}.st15{stroke-dasharray:2.0606,3.0909}.st15,.st16{fill:none;stroke:#3aaa35}.st16{stroke-dasharray:1.8571,2.7857}.st16,.st17{stroke-linecap:round;stroke-linejoin:round}.st17{stroke-dasharray:2,3}.st17,.st18{fill:none;stroke:#3aaa35}.st18{stroke-dasharray:2.0879,2.0879}.st18,.st19{stroke-linecap:round;stroke-linejoin:round}.st19{stroke-dasharray:2.1846,2.1846}.st19,.st20{fill:none;stroke:#3aaa35}.st20{stroke-dasharray:2.4103,2.4103}.st20,.st21{stroke-linecap:round;stroke-linejoin:round}.st21{fill-rule:evenodd;clip-rule:evenodd;stroke-miterlimit:10}.st21,.st22{fill:none;stroke:#3aaa35;stroke-width:2}.st22{stroke-dasharray:2.0143,3.0214}.st22,.st23{stroke-miterlimit:10}.st23{stroke-dasharray:2.0133,3.0199}.st23,.st24{fill:none;stroke:#3aaa35;stroke-width:2}.st24{stroke-dasharray:1.8982,2.8472}.st24,.st25{stroke-miterlimit:10}.st25,.st26{fill:none;stroke:#3aaa35;stroke-linecap:round;stroke-linejoin:round}.st26{stroke-dasharray:1.9363,2.9045}.st27{stroke-dasharray:2.0107,3.0161}.st27,.st28{fill:none;stroke:#3aaa35;stroke-linecap:round;stroke-linejoin:round}.st28{stroke-dasharray:2.1648,3.2473}</style><g id="grid"><path class="st0" d="M33.5-10.9c24.8 0 44.9 20.1 44.9 44.9S58.3 78.9 33.5 78.9-11.4 58.8-11.4 34 8.8-10.9 33.5-10.9m0-.1c-24.9 0-45 20.1-45 45s20.1 45 45 45 45-20.1 45-45-20.1-45-45-45z"/><path class="st0" d="M33.5 19.1c8.2 0 14.9 6.7 14.9 14.9s-6.7 14.9-14.9 14.9S18.6 42.2 18.6 34s6.7-14.9 14.9-14.9m0-.1c-8.3 0-15 6.7-15 15s6.7 15 15 15 15-6.7 15-15-6.7-15-15-15z"/><path class="st0" d="M33.5 4.1C50 4.1 63.4 17.5 63.4 34S50 63.9 33.5 63.9C17.1 63.9 3.6 50.5 3.6 34S17.1 4.1 33.5 4.1m0-.1C17 4 3.5 17.4 3.5 34s13.4 30 30 30 30-13.4 30-30-13.4-30-30-30z"/><path class="st0" d="M78.5-11v90h-90v-90h90m0 0h-90v90h90v-90z"/><path class="st1" d="M-4-3.5l75 75M71-3.5l-75 75"/></g><g id="copy"><path class="st3" d="M-79.7 21h99.3v18h-99.3z"/><text transform="translate(-79.718 26.83)" class="st2 st4 st5">Gift shop</text></g><g id="icons"><path class="st10" d="M65.1 68H3.6C2.2 68 1 66.8 1 65.4V17.3c0-1.4 1.2-2.6 2.6-2.6h61.5c1.4 0 2.6 1.2 2.6 2.6v48.2c0 1.3-1.2 2.5-2.6 2.5z"/><path class="st10" d="M26.5 14.7h14V68h-14zM1 34.7h25.5V48H1zM40.5 34.7h27.1V48H40.5zM37.7 11h20s1-10-6.7-10C40.9 1 37.8 11 37.7 11zM31.1 11h-20s-1-10 6.7-10c10.1 0 13.1 10 13.3 10z"/></g></svg>