<svg xmlns="http://www.w3.org/2000/svg" viewBox="0 0 50 40"><style>.st0{display:none}.st1{display:inline}.st2{display:none}.st3{display:none;fill-rule:evenodd;clip-rule:evenodd;fill:none;stroke:#999;stroke-width:.1;stroke-miterlimit:10}.st4{fill:#5a5959}.st5{fill:none;stroke-width:2;stroke-linecap:round;stroke-linejoin:round;stroke-miterlimit:10}.st5,.st6{stroke:#e30613}.st6{display:inline}.st6,.st7{fill:none;stroke-width:2;stroke-linecap:round;stroke-linejoin:round;stroke-miterlimit:10}.st7{stroke:#3aaa35}.st8{fill:#3aaa35}.st9{fill:#7aaf3b;stroke:#3aaa35;stroke-linecap:round;stroke-linejoin:round}.st9,.st10{stroke-width:2;stroke-miterlimit:10}.st10,.st11{fill:none;stroke:#3aaa35}.st11,.st12{stroke-linecap:round;stroke-linejoin:round}.st12{stroke-dasharray:2.0606,3.0909}.st12,.st13{fill:none;stroke:#3aaa35}.st13{stroke-dasharray:1.8571,2.7857}.st13,.st14{stroke-linecap:round;stroke-linejoin:round}.st14{stroke-dasharray:2,3}.st14,.st15{fill:none;stroke:#3aaa35}.st15{stroke-dasharray:2.0879,2.0879}.st15,.st16{stroke-linecap:round;stroke-linejoin:round}.st16{stroke-dasharray:2.1846,2.1846}.st16,.st17{fill:none;stroke:#3aaa35}.st17{stroke-dasharray:2.4103,2.4103}.st17,.st18{stroke-linecap:round;stroke-linejoin:round}.st18{fill-rule:evenodd;clip-rule:evenodd;stroke-miterlimit:10}.st18,.st19{fill:none;stroke:#3aaa35;stroke-width:2}.st19{stroke-dasharray:2.0143,3.0214}.st19,.st20{stroke-miterlimit:10}.st20{stroke-dasharray:2.0133,3.0199}.st20,.st21{fill:none;stroke:#3aaa35;stroke-width:2}.st21{stroke-dasharray:1.8982,2.8472}.st21,.st22{stroke-miterlimit:10}.st22,.st23{fill:none;stroke:#3aaa35;stroke-linecap:round;stroke-linejoin:round}.st23{stroke-dasharray:1.9363,2.9045}.st24{stroke-dasharray:2.0107,3.0161}.st24,.st25{fill:none;stroke:#3aaa35;stroke-linecap:round;stroke-linejoin:round}.st25{stroke-dasharray:2.1648,3.2473}</style><g class="st0 st1" id="grid"><path class="st2" d="M25-12.9C41.5-12.9 54.9.5 54.9 17S41.5 46.9 25 46.9-4.9 33.5-4.9 17 8.5-12.9 25-12.9m0-.1C8.4-13-5 .4-5 17S8.4 47 25 47s30-13.4 30-30-13.4-30-30-30z"/><path class="st2" d="M25 7.1c5.5 0 9.9 4.4 9.9 9.9s-4.4 9.9-9.9 9.9-9.9-4.4-9.9-9.9 4.4-9.9 9.9-9.9m0-.1c-5.5 0-10 4.5-10 10s4.5 10 10 10 10-4.5 10-10S30.5 7 25 7z"/><path class="st2" d="M25-2.9C36-2.9 44.9 6 44.9 17S36 36.9 25 36.9C14 36.9 5.1 28 5.1 17S14-2.9 25-2.9m0-.1C14-3 5 5.9 5 17s9 20 20 20 20-9 20-20S36-3 25-3z"/><path class="st2" d="M55-13v60H-5v-60h60m0 0H-5v60h60v-60z"/><path class="st3" d="M0-8l50 50M50-8L0 42"/></g><g id="icons"><path class="st7" d="M1 19h20.8l2-6 4 14 4-8H49"/><path class="st7" d="M47.8 13c0-6.5-5.5-12-12-12-4 0-7.9 2.9-10 6-2.1-3.1-6-6-10-6-6.5 0-12 5.5-12 12 0 4.2 6 10 6 10l16.1 16 15.9-16s6-5.5 6-10z"/></g></svg>