<svg xmlns="http://www.w3.org/2000/svg" viewBox="0 0 34 54"><style>.st0{display:none}.st1{display:inline}.st2{display:none}.st3{display:none;fill-rule:evenodd;clip-rule:evenodd;fill:none;stroke:#999;stroke-width:.1;stroke-miterlimit:10}.st4{fill:#5a5959}.st5{fill:none;stroke-width:2;stroke-linecap:round;stroke-linejoin:round;stroke-miterlimit:10}.st5,.st6{stroke:#e30613}.st6{display:inline}.st6,.st7{fill:none;stroke-width:2;stroke-linecap:round;stroke-linejoin:round;stroke-miterlimit:10}.st7{stroke:#3aaa35}.st8{fill:#3aaa35}.st9{fill:#7aaf3b;stroke:#3aaa35;stroke-linecap:round;stroke-linejoin:round}.st9,.st10{stroke-width:2;stroke-miterlimit:10}.st10,.st11{fill:none;stroke:#3aaa35}.st11,.st12{stroke-linecap:round;stroke-linejoin:round}.st12{stroke-dasharray:2.0606,3.0909}.st12,.st13{fill:none;stroke:#3aaa35}.st13{stroke-dasharray:1.8571,2.7857}.st13,.st14{stroke-linecap:round;stroke-linejoin:round}.st14{stroke-dasharray:2,3}.st14,.st15{fill:none;stroke:#3aaa35}.st15{stroke-dasharray:2.0879,2.0879}.st15,.st16{stroke-linecap:round;stroke-linejoin:round}.st16{stroke-dasharray:2.1846,2.1846}.st16,.st17{fill:none;stroke:#3aaa35}.st17{stroke-dasharray:2.4103,2.4103}.st17,.st18{stroke-linecap:round;stroke-linejoin:round}.st18{fill-rule:evenodd;clip-rule:evenodd;stroke-miterlimit:10}.st18,.st19{fill:none;stroke:#3aaa35;stroke-width:2}.st19{stroke-dasharray:2.0143,3.0214}.st19,.st20{stroke-miterlimit:10}.st20{stroke-dasharray:2.0133,3.0199}.st20,.st21{fill:none;stroke:#3aaa35;stroke-width:2}.st21{stroke-dasharray:1.8982,2.8472}.st21,.st22{stroke-miterlimit:10}.st22,.st23{fill:none;stroke:#3aaa35;stroke-linecap:round;stroke-linejoin:round}.st23{stroke-dasharray:1.9363,2.9045}.st24{stroke-dasharray:2.0107,3.0161}.st24,.st25{fill:none;stroke:#3aaa35;stroke-linecap:round;stroke-linejoin:round}.st25{stroke-dasharray:2.1648,3.2473}</style><g class="st0 st1" id="grid"><path class="st2" d="M16.2-2.9c16.5 0 29.9 13.4 29.9 29.9S32.7 56.9 16.2 56.9-13.7 43.5-13.7 27-.3-2.9 16.2-2.9m0-.1c-16.6 0-30 13.4-30 30s13.4 30 30 30 30-13.4 30-30-13.4-30-30-30z"/><path class="st2" d="M16.2 17.1c5.5 0 9.9 4.4 9.9 9.9s-4.4 9.9-9.9 9.9-9.9-4.4-9.9-9.9 4.5-9.9 9.9-9.9m0-.1c-5.5 0-10 4.5-10 10s4.5 10 10 10 10-4.5 10-10-4.5-10-10-10z"/><path class="st2" d="M16.2 7.1c11 0 19.9 8.9 19.9 19.9s-8.9 19.9-19.9 19.9C5.2 46.9-3.7 38-3.7 27S5.2 7.1 16.2 7.1m0-.1c-11 0-20 9-20 20s9 20 20 20 20-9 20-20-8.9-20-20-20z"/><path class="st2" d="M46.2-3v60h-60V-3h60m0 0h-60v60h60V-3z"/><path class="st3" d="M-8.8 2l50 50M41.2 2l-50 50"/></g><g id="icons"><path class="st7" d="M33 17c0-8.7-7.3-16-16-16S1 8.3 1 17c0 11.8 14 18 14 18l-4 6h12l-4-6s14-8 14-18zM7 15C7 9.7 12 5 17 5M16.2 41v8s-.1 4 4 4c4 0 4-4 4-4v-2s-.2-4 4-4c4.3 0 4 4 4 4v4"/></g></svg>