<svg xmlns="http://www.w3.org/2000/svg" viewBox="0 0 45.8 49.6"><style>.st0{display:none}.st1{display:inline}.st2{display:none}.st3{display:none;fill-rule:evenodd;clip-rule:evenodd;fill:none;stroke:#999;stroke-width:.1;stroke-miterlimit:10}.st4{fill:#5a5959}.st5{fill:none;stroke:#3aaa35;stroke-width:2;stroke-linecap:round;stroke-linejoin:round;stroke-miterlimit:10}.st6{fill:#3aaa35}.st7{stroke-width:2;stroke-miterlimit:10}.st7,.st8{fill:none;stroke:#3aaa35}.st8{stroke-linecap:round;stroke-linejoin:round}.st9{stroke-dasharray:2.0606,3.0909}.st9,.st10{fill:none;stroke:#3aaa35;stroke-linecap:round;stroke-linejoin:round}.st10{stroke-dasharray:1.8571,2.7857}.st11{stroke-dasharray:2,3}.st11,.st12{fill:none;stroke:#3aaa35;stroke-linecap:round;stroke-linejoin:round}.st12{stroke-dasharray:2.0879,2.0879}.st13{stroke-dasharray:2.1846,2.1846}.st13,.st14{fill:none;stroke:#3aaa35;stroke-linecap:round;stroke-linejoin:round}.st14{stroke-dasharray:2.4103,2.4103}.st15{fill-rule:evenodd;clip-rule:evenodd;stroke-width:2}.st15,.st16{fill:none;stroke:#3aaa35;stroke-linecap:round;stroke-linejoin:round;stroke-miterlimit:10}.st17{stroke-dasharray:1.9363,2.9045}.st17,.st18{fill:none;stroke:#3aaa35;stroke-linecap:round;stroke-linejoin:round}.st18{stroke-dasharray:2.0107,3.0161}.st19{stroke-dasharray:2.1648,3.2473}.st19,.st20{fill:none;stroke:#3aaa35;stroke-linecap:round;stroke-linejoin:round}.st20{stroke-width:2}.st21{stroke-dasharray:2.1959,4.3919}.st21,.st22{fill:none;stroke:#3aaa35;stroke-width:2;stroke-linecap:round;stroke-linejoin:round}.st22{stroke-dasharray:2.0661,4.1322}.st23{stroke-dasharray:2.9348,3.913}.st23,.st24{fill:none;stroke:#3aaa35;stroke-width:2;stroke-linecap:round;stroke-linejoin:round}.st24{stroke-dasharray:2.8015,3.7354}.st25{stroke-dasharray:3,4}.st25,.st26{fill:none;stroke:#3aaa35;stroke-width:2;stroke-linecap:round;stroke-linejoin:round}.st26{stroke-dasharray:2.85,3.8}.st27{font-family:&apos;Lato-Bold&apos;}.st28{font-size:9.7234px}</style><g class="st0 st1" id="grid"><path class="st2" d="M22.8-5.1c16.5 0 29.9 13.4 29.9 29.9S39.2 54.7 22.8 54.7-7.1 41.3-7.1 24.8 6.3-5.1 22.8-5.1m0-.1c-16.6 0-30 13.4-30 30s13.4 30 30 30 30-13.4 30-30c0-16.5-13.5-30-30-30z"/><path class="st2" d="M22.8 14.9c5.5 0 9.9 4.4 9.9 9.9s-4.4 9.9-9.9 9.9-9.9-4.4-9.9-9.9 4.4-9.9 9.9-9.9m0-.1c-5.5 0-10 4.5-10 10s4.5 10 10 10 10-4.5 10-10-4.5-10-10-10z"/><path class="st2" d="M22.8 4.9c11 0 19.9 8.9 19.9 19.9s-8.9 19.9-19.9 19.9c-11 0-19.9-8.9-19.9-19.9S11.8 4.9 22.8 4.9m0-.1c-11 0-20 9-20 20s9 20 20 20 20-9 20-20-9-20-20-20z"/><path class="st2" d="M52.8-5.2v60h-60v-60h60m0 0h-60v60h60v-60z"/><path class="st3" d="M-2.2-.2l50 50M47.8-.2l-50 50"/></g><g id="icons"><path class="st5" d="M1 48.6V1M15.6 48.6V1M30.2 48.6V1M1 29.2h43.8M1 41.8h43.8M44.8 48.6V1"/><text transform="translate(4.888 38.92)" class="st6 st27 st28">1</text><text transform="translate(20.446 38.92)" class="st6 st27 st28">2</text><text transform="translate(35.03 38.92)" class="st6 st27 st28">3</text></g></svg>