<svg xmlns="http://www.w3.org/2000/svg" viewBox="0 0 42.5 48.2"><style>.st0{display:none}.st1{display:inline}.st2,.st3{display:none}.st3{fill-rule:evenodd;clip-rule:evenodd;fill:none;stroke:#999;stroke-width:.1;stroke-miterlimit:10}.st4{fill:#5a5959}.st5{fill:none;stroke:#008bd0;stroke-width:2;stroke-linecap:round;stroke-linejoin:round;stroke-miterlimit:10}.st6{fill:#008bd0}.st7{stroke-width:2;stroke-miterlimit:10}.st7,.st8{fill:none;stroke:#008bd0}.st8{stroke-linecap:round;stroke-linejoin:round}.st9{stroke-dasharray:2.0606,3.0909}.st9,.st10{fill:none;stroke:#008bd0;stroke-linecap:round;stroke-linejoin:round}.st10{stroke-dasharray:1.8571,2.7857}.st11{stroke-dasharray:2,3}.st11,.st12{fill:none;stroke:#008bd0;stroke-linecap:round;stroke-linejoin:round}.st12{stroke-dasharray:2.0879,2.0879}.st13{stroke-dasharray:2.1846,2.1846}.st13,.st14{fill:none;stroke:#008bd0;stroke-linecap:round;stroke-linejoin:round}.st14{stroke-dasharray:2.4103,2.4103}.st15{fill-rule:evenodd;clip-rule:evenodd;stroke-width:2}.st15,.st16{fill:none;stroke:#008bd0;stroke-linecap:round;stroke-linejoin:round;stroke-miterlimit:10}.st17{stroke-dasharray:1.9363,2.9045}.st17,.st18{fill:none;stroke:#008bd0;stroke-linecap:round;stroke-linejoin:round}.st18{stroke-dasharray:2.0107,3.0161}.st19{stroke-dasharray:2.1648,3.2473}.st19,.st20{fill:none;stroke:#008bd0;stroke-linecap:round;stroke-linejoin:round}.st20{stroke-width:2}.st21{stroke-dasharray:2.1959,4.3919}.st21,.st22{fill:none;stroke:#008bd0;stroke-width:2;stroke-linecap:round;stroke-linejoin:round}.st22{stroke-dasharray:2.0661,4.1322}.st23{stroke-dasharray:2.9348,3.913}.st23,.st24{fill:none;stroke:#008bd0;stroke-width:2;stroke-linecap:round;stroke-linejoin:round}.st24{stroke-dasharray:2.8015,3.7354}.st25{stroke-dasharray:3,4}.st25,.st26{fill:none;stroke:#008bd0;stroke-width:2;stroke-linecap:round;stroke-linejoin:round}.st26{stroke-dasharray:2.85,3.8}</style><g class="st0 st1" id="grid"><path class="st2" d="M18.2-4.7c16.5 0 29.9 13.4 29.9 29.9S34.7 55.1 18.2 55.1s-29.9-13.4-29.9-29.9S1.7-4.7 18.2-4.7m0-.1c-16.6 0-30 13.4-30 30s13.4 30 30 30 30-13.4 30-30-13.4-30-30-30z"/><path class="st2" d="M18.2 15.3c5.5 0 9.9 4.4 9.9 9.9s-4.4 9.9-9.9 9.9-9.9-4.4-9.9-9.9 4.5-9.9 9.9-9.9m0-.1c-5.5 0-10 4.5-10 10s4.5 10 10 10 10-4.5 10-10-4.5-10-10-10z"/><path class="st2" d="M18.2 5.3c11 0 19.9 8.9 19.9 19.9s-8.9 19.9-19.9 19.9c-11 0-19.9-8.9-19.9-19.9S7.2 5.3 18.2 5.3m0-.1c-11 0-20 9-20 20s9 20 20 20 20-9 20-20c0-11.1-8.9-20-20-20z"/><path class="st2" d="M48.2-4.8v60h-60v-60h60m0 0h-60v60h60v-60z"/><path class="st3" d="M-6.8.2l50 50m0-50l-50 50"/></g><g id="icons"><path class="st5" d="M15.2 18.2v12H26l6.3 11.2 4.8-1.4M15.2 23.2h5"/><circle class="st5" cx="14.8" cy="13.9" r="3.6"/><path class="st5" d="M25.1 40c-2 4.3-6.4 7.2-11.4 7.2-7 0-12.7-5.7-12.7-12.7 0-5.3 3.2-9.8 7.7-11.7M31 6.5c-.7 1-1.1 2.2-1.1 3.5 0 3.2 2.6 5.8 5.8 5.8 3.2 0 5.8-2.6 5.8-5.8 0-1.3-.4-2.5-1.1-3.5L35.7 1 31 6.5z"/></g></svg>