<svg xmlns="http://www.w3.org/2000/svg" viewBox="0 0 46 46"><style>.st0{display:none}.st1{display:inline}.st2,.st3{display:none}.st3{fill-rule:evenodd;clip-rule:evenodd;fill:none;stroke:#999;stroke-width:.1;stroke-miterlimit:10}.st4{fill:#5a5959}.st5{fill:none;stroke:#008bd0;stroke-width:2;stroke-linecap:round;stroke-linejoin:round;stroke-miterlimit:10}.st6{fill:#008bd0}.st7{stroke-width:2;stroke-miterlimit:10}.st7,.st8{fill:none;stroke:#008bd0}.st8{stroke-linecap:round;stroke-linejoin:round}.st9{stroke-dasharray:2.0606,3.0909}.st9,.st10{fill:none;stroke:#008bd0;stroke-linecap:round;stroke-linejoin:round}.st10{stroke-dasharray:1.8571,2.7857}.st11{stroke-dasharray:2,3}.st11,.st12{fill:none;stroke:#008bd0;stroke-linecap:round;stroke-linejoin:round}.st12{stroke-dasharray:2.0879,2.0879}.st13{stroke-dasharray:2.1846,2.1846}.st13,.st14{fill:none;stroke:#008bd0;stroke-linecap:round;stroke-linejoin:round}.st14{stroke-dasharray:2.4103,2.4103}.st15{fill-rule:evenodd;clip-rule:evenodd;stroke-width:2}.st15,.st16{fill:none;stroke:#008bd0;stroke-linecap:round;stroke-linejoin:round;stroke-miterlimit:10}.st17{stroke-dasharray:1.9363,2.9045}.st17,.st18{fill:none;stroke:#008bd0;stroke-linecap:round;stroke-linejoin:round}.st18{stroke-dasharray:2.0107,3.0161}.st19{stroke-dasharray:2.1648,3.2473}.st19,.st20{fill:none;stroke:#008bd0;stroke-linecap:round;stroke-linejoin:round}.st20{stroke-width:2}.st21{stroke-dasharray:2.1959,4.3919}.st21,.st22{fill:none;stroke:#008bd0;stroke-width:2;stroke-linecap:round;stroke-linejoin:round}.st22{stroke-dasharray:2.0661,4.1322}.st23{stroke-dasharray:2.9348,3.913}.st23,.st24{fill:none;stroke:#008bd0;stroke-width:2;stroke-linecap:round;stroke-linejoin:round}.st24{stroke-dasharray:2.8015,3.7354}.st25{stroke-dasharray:3,4}.st25,.st26{fill:none;stroke:#008bd0;stroke-width:2;stroke-linecap:round;stroke-linejoin:round}.st26{stroke-dasharray:2.85,3.8}</style><g class="st0 st1" id="grid"><path class="st2" d="M23-6.9C39.5-6.9 52.9 6.5 52.9 23S39.5 52.9 23 52.9-6.9 39.5-6.9 23 6.5-6.9 23-6.9m0-.1C6.4-7-7 6.4-7 23S6.4 53 23 53s30-13.4 30-30S39.6-7 23-7z"/><path class="st2" d="M23 13.1c5.5 0 9.9 4.4 9.9 9.9s-4.4 9.9-9.9 9.9-9.9-4.4-9.9-9.9 4.4-9.9 9.9-9.9m0-.1c-5.5 0-10 4.5-10 10s4.5 10 10 10 10-4.5 10-10-4.5-10-10-10z"/><path class="st2" d="M23 3.1C34 3.1 42.9 12 42.9 23S34 42.9 23 42.9C12 42.9 3.1 34 3.1 23S12 3.1 23 3.1m0-.1C12 3 3 12 3 23s9 20 20 20 20-9 20-20S34 3 23 3z"/><path class="st2" d="M53-7v60H-7V-7h60m0 0H-7v60h60V-7z"/><path class="st3" d="M-2-2l50 50m0-50L-2 48"/></g><g id="icons"><ellipse class="st5" cx="16.8" cy="11" rx="4" ry="4"/><path class="st5" d="M45 42.2c0 1.5-1.2 2.8-2.8 2.8H3.8C2.2 45 1 43.8 1 42.2V3.8C1 2.2 2.2 1 3.8 1h38.5C43.8 1 45 2.2 45 3.8v38.4zM35.8 17l-4 4m4-4l4 4m-4 8l4-4m-4 4l-4-4"/><path class="st5" d="M10 19h14v10h-4v10h-6V29h-4z"/></g></svg>