<svg xmlns="http://www.w3.org/2000/svg" viewBox="0 0 37.2 52"><style>.st0{display:none}.st1{display:inline}.st2,.st3{display:none}.st3{fill-rule:evenodd;clip-rule:evenodd;fill:none;stroke:#999;stroke-width:.1;stroke-miterlimit:10}.st4{fill:#5a5959}.st5{fill:none;stroke:#008bd0;stroke-width:2;stroke-linecap:round;stroke-linejoin:round;stroke-miterlimit:10}.st6{fill:#008bd0}.st7{stroke-width:2;stroke-miterlimit:10}.st7,.st8{fill:none;stroke:#008bd0}.st8{stroke-linecap:round;stroke-linejoin:round}.st9{stroke-dasharray:2.0606,3.0909}.st9,.st10{fill:none;stroke:#008bd0;stroke-linecap:round;stroke-linejoin:round}.st10{stroke-dasharray:1.8571,2.7857}.st11{stroke-dasharray:2,3}.st11,.st12{fill:none;stroke:#008bd0;stroke-linecap:round;stroke-linejoin:round}.st12{stroke-dasharray:2.0879,2.0879}.st13{stroke-dasharray:2.1846,2.1846}.st13,.st14{fill:none;stroke:#008bd0;stroke-linecap:round;stroke-linejoin:round}.st14{stroke-dasharray:2.4103,2.4103}.st15{fill-rule:evenodd;clip-rule:evenodd;stroke-width:2}.st15,.st16{fill:none;stroke:#008bd0;stroke-linecap:round;stroke-linejoin:round;stroke-miterlimit:10}.st17{stroke-dasharray:1.9363,2.9045}.st17,.st18{fill:none;stroke:#008bd0;stroke-linecap:round;stroke-linejoin:round}.st18{stroke-dasharray:2.0107,3.0161}.st19{stroke-dasharray:2.1648,3.2473}.st19,.st20{fill:none;stroke:#008bd0;stroke-linecap:round;stroke-linejoin:round}.st20{stroke-width:2}.st21{stroke-dasharray:2.1959,4.3919}.st21,.st22{fill:none;stroke:#008bd0;stroke-width:2;stroke-linecap:round;stroke-linejoin:round}.st22{stroke-dasharray:2.0661,4.1322}.st23{stroke-dasharray:2.9348,3.913}.st23,.st24{fill:none;stroke:#008bd0;stroke-width:2;stroke-linecap:round;stroke-linejoin:round}.st24{stroke-dasharray:2.8015,3.7354}.st25{stroke-dasharray:3,4}.st25,.st26{fill:none;stroke:#008bd0;stroke-width:2;stroke-linecap:round;stroke-linejoin:round}.st26{stroke-dasharray:2.85,3.8}</style><g class="st0 st1" id="grid"><path class="st2" d="M20.2-4.9C36.7-4.9 50.1 8.5 50.1 25S36.7 54.9 20.2 54.9-9.7 41.5-9.7 25 3.7-4.9 20.2-4.9m0-.1C3.6-5-9.8 8.4-9.8 25s13.4 30 30 30 30-13.4 30-30-13.4-30-30-30z"/><path class="st2" d="M20.2 15.1c5.5 0 9.9 4.4 9.9 9.9s-4.4 9.9-9.9 9.9-9.9-4.4-9.9-9.9 4.5-9.9 9.9-9.9m0-.1c-5.5 0-10 4.5-10 10s4.5 10 10 10 10-4.5 10-10-4.5-10-10-10z"/><path class="st2" d="M20.2 5.1c11 0 19.9 8.9 19.9 19.9s-8.9 19.9-19.9 19.9C9.2 44.9.3 36 .3 25S9.2 5.1 20.2 5.1m0-.1c-11 0-20 9-20 20s9 20 20 20 20-9 20-20-8.9-20-20-20z"/><path class="st2" d="M50.2-5v60h-60V-5h60m0 0h-60v60h60V-5z"/><path class="st3" d="M-4.8 0l50 50m0-50l-50 50"/></g><g id="icons"><path class="st5" d="M36.2 37h-8v14M1 47s2.2 2 6 2 5.4-4 10-4c4.1 0 6 2 6 2m9.2-10V7c0-8-12-8-12 0m0 14v12H13l-4 8-4.4-2m15.6-14h-4"/><circle class="st5" cx="20.8" cy="16.8" r="3.8"/></g></svg>