<svg xmlns="http://www.w3.org/2000/svg" viewBox="-262 382.9 70 76"><style>.st0{display:none}.st1{display:inline}.st2,.st3{display:none}.st3{stroke:#999;stroke-width:.1}.st3,.st4{fill:none;stroke-miterlimit:10}.st4{stroke:#008bd0;stroke-width:2;stroke-linecap:round;stroke-linejoin:round}</style><g class="st0 st1" id="grid"><path class="st2" d="M-230 376c24.8 0 44.9 20.1 44.9 44.9 0 24.8-20.1 44.9-44.9 44.9s-44.9-20.1-44.9-44.9c0-24.8 20.1-44.9 44.9-44.9m0-.1c-24.9 0-45 20.1-45 45s20.1 45 45 45 45-20.1 45-45-20.1-45-45-45z"/><path class="st2" d="M-230 406c8.2 0 14.9 6.7 14.9 14.9s-6.7 14.9-14.9 14.9-14.9-6.7-14.9-14.9 6.7-14.9 14.9-14.9m0-.1c-8.3 0-15 6.7-15 15s6.7 15 15 15 15-6.7 15-15-6.7-15-15-15z"/><path class="st2" d="M-230 391c16.5 0 29.9 13.4 29.9 29.9s-13.4 29.9-29.9 29.9-29.9-13.4-29.9-29.9S-246.5 391-230 391m0-.1c-16.6 0-30 13.4-30 30s13.4 30 30 30 30-13.4 30-30-13.4-30-30-30z"/><path class="st2" d="M-185 375.9v90h-90v-90h90m0 0h-90v90h90v-90z"/><path class="st3" d="M-267.5 383.4l75 75m0-75l-75 75"/></g><g id="icons"><path class="st4" d="M-239.3 395.9v19h16.4l9.5 16.6 7.3-2.3m-33.2-26.3h7"/><circle class="st4" cx="-240" cy="389.3" r="5.4"/><path class="st4" d="M-224.3 429c-3.1 6.5-9.7 10.9-17.4 10.9-10.7.1-19.3-8.6-19.3-19.2 0-8 4.8-14.8 11.8-17.8m-9.8 55l66-20v20z"/></g></svg>