<svg id="Layer_1" xmlns="http://www.w3.org/2000/svg" viewBox="0 0 20.3 25.2"><style>.st0{display:none}.st1{display:inline}.st2{fill:#999}.st3{fill:none;stroke:#999;stroke-width:.1;stroke-miterlimit:10}.st4{fill:#FFF}.st4,.st5{stroke:#3aaa35;stroke-width:2;stroke-linecap:round;stroke-linejoin:round;stroke-miterlimit:10}.st5{fill:none}</style><g class="st0 st1" id="grid"><path class="st2" d="M9.4-2.9c8.2 0 14.9 6.7 14.9 14.9S17.6 26.9 9.4 26.9-5.5 20.2-5.5 12 1.1-2.9 9.4-2.9m0-.1c-8.3 0-15 6.7-15 15s6.7 15 15 15 15-6.7 15-15-6.8-15-15-15z"/><path class="st2" d="M9.4 7.1c2.7 0 4.9 2.2 4.9 4.9s-2.2 4.9-4.9 4.9-4.9-2.2-4.9-4.9 2.2-4.9 4.9-4.9m0-.1c-2.8 0-5 2.2-5 5s2.2 5 5 5 5-2.2 5-5-2.3-5-5-5z"/><path class="st2" d="M9.4 2.1c5.5 0 9.9 4.4 9.9 9.9s-4.4 9.9-9.9 9.9S-.5 17.5-.5 12s4.4-9.9 9.9-9.9m0-.1C3.9 2-.6 6.5-.6 12s4.5 10 10 10 10-4.5 10-10-4.5-10-10-10z"/><path class="st2" d="M24.4-3v30h-30V-3h30m0 0h-30v30h30V-3z"/><path class="st3" d="M-3.1-.5l25 25M21.9-.5l-25 25"/></g><path class="st4" d="M17.5 15.6c1.1-1.5 1.8-3.4 1.8-5.5C19.3 5 15.2 1 10.2 1 5.1 1 1 5.1 1 10.1c0 2 .7 3.9 1.8 5.5l7.3 8.6 7.4-8.6z"/><circle class="st5" cx="10.1" cy="10.1" r="3.8"/></svg>