<svg id="Layer_1" xmlns="http://www.w3.org/2000/svg" viewBox="0 0 42.8 44"><style>.st0{fill:none;stroke:#FFF;stroke-width:2;stroke-linecap:round;stroke-linejoin:round;stroke-miterlimit:10}.st1{fill:#FFF}</style><path class="st0" d="M1 15h40"/><path class="st1" d="M11 34h3v-8.6c0-.3.5-.7.5-1.1l-1.9 1.8-.2.2h-.2c-.1 0-.2 0-.3-.1s-.2-.1-.2-.2l-.8-1.2 4.5-3.9H17v13h2v2h-8V34zm17.9-13c.7 0 1.3.1 1.9.3.6.2 1 .5 1.5.9.4.4.7.8.9 1.3s.3 1.1.3 1.7c0 .5-.1 1-.2 1.5-.2.5-.4.9-.6 1.3l-.9 1.2c-.4.4-.7.8-1.1 1.2l-3.3 3.4c.3-.1.6 0 1 0 .3-.1.6.1.9.1h3.8c.3 0 .1-.1.3 0 .2.2-.2.2-.2.4V36H23v-.9c0-.2.4-.3.4-.5.1-.2.3-.4.5-.5l4.6-4.5c.4-.4.8-.7 1-1.1.3-.3.6-.7.8-1 .2-.3.4-.7.5-1 .1-.4.2-.7.2-1.1s0-.7-.2-.9c-.1-.3-.2-.5-.4-.7-.2-.2-.4-.3-.7-.4-.3-.1-.6-.1-.9-.1-.6 0-1.1.2-1.5.5s-.7.7-.8 1.2c-.1.3-.2.4-.3.6-.1.1-.3.2-.6.2h-.3l-1.3-.2c.1-.7.3-1.3.6-1.9.3-.5.7-1 1.1-1.3.4-.4.9-.6 1.5-.8.5-.5 1.1-.6 1.7-.6z"/><path class="st0" d="M36 5h6v38H1V5h6m7 0h16"/><path class="st0" d="M8 1h6v8H8V1zm22 0h6v8h-6V1z"/></svg>